<?xml version="1.0" standalone="no"?>
<!DOCTYPE svg PUBLIC "-//W3C//DTD SVG 20010904//EN"
 "http://www.w3.org/TR/2001/REC-SVG-20010904/DTD/svg10.dtd">
<svg version="1.0" xmlns="http://www.w3.org/2000/svg"
 width="860.000000pt" height="858.000000pt" viewBox="0 0 860.000000 858.000000"
 preserveAspectRatio="xMidYMid meet">

<g transform="translate(0.000000,858.000000) scale(0.100000,-0.100000)"
fill="#000000" stroke="none">
<path d="M1638 8570 c-303 -55 -476 -267 -547 -667 l-17 -98 -55 -7 c-29 -3
-97 -6 -150 -7 -451 -5 -693 -125 -795 -396 -63 -169 -58 109 -62 -3440 -2
-2299 0 -3258 8 -3327 41 -361 196 -536 535 -605 86 -17 264 -18 3670 -21
2570 -2 3615 0 3703 8 154 14 253 39 345 87 182 95 279 268 307 545 8 82 10
998 8 3343 -4 3013 -5 3235 -21 3299 -53 214 -191 377 -376 447 -111 41 -179
51 -425 57 l-239 7 -22 111 c-107 531 -350 727 -801 649 -216 -38 -289 -112
-504 -510 -51 -94 -103 -187 -116 -207 l-24 -38 -1800 0 c-1704 0 -1800 1
-1808 18 -5 9 -15 46 -21 82 -17 88 -77 273 -111 340 -112 223 -275 327 -525
335 -60 2 -131 0 -157 -5z m305 -283 c83 -41 143 -100 182 -177 49 -99 50
-112 50 -790 0 -508 -3 -646 -14 -690 -55 -217 -250 -348 -463 -312 -191 33
-321 176 -348 382 -7 56 -10 288 -8 685 3 594 4 601 26 660 71 190 213 288
408 282 83 -3 99 -6 167 -40z m5050 14 c70 -28 162 -109 200 -179 59 -108 60
-129 61 -792 0 -647 -3 -687 -50 -787 -35 -72 -102 -144 -171 -180 -231 -123
-501 -14 -585 236 -22 65 -23 76 -26 704 -3 686 -3 697 49 804 44 91 143 177
242 209 63 21 208 13 280 -15z m964 -2895 c60 -25 99 -74 113 -138 8 -39 10
-643 8 -2328 -3 -2252 -3 -2275 -23 -2314 -26 -52 -58 -74 -125 -86 -37 -7
-1264 -9 -3670 -8 l-3615 3 -35 20 c-19 12 -43 36 -55 55 -20 35 -20 42 -23
2422 l-2 2388 2757 3 c4790 4 4621 5 4670 -17z"/>
<path d="M1560 4150 l0 -280 595 0 595 0 0 280 0 280 -595 0 -595 0 0 -280z"/>
<path d="M3720 4150 l0 -280 590 0 590 0 0 280 0 280 -590 0 -590 0 0 -280z"/>
<path d="M5872 4143 l3 -278 575 0 575 0 3 278 2 277 -580 0 -580 0 2 -277z"/>
<path d="M1550 2915 l0 -275 595 0 595 0 0 275 0 275 -595 0 -595 0 0 -275z"/>
<path d="M3720 2915 l0 -275 590 0 590 0 0 275 0 275 -590 0 -590 0 0 -275z"/>
<path d="M5880 2910 l0 -270 580 0 580 0 0 270 0 270 -580 0 -580 0 0 -270z"/>
<path d="M1550 1680 l0 -290 595 0 595 0 0 290 0 290 -595 0 -595 0 0 -290z"/>
<path d="M3715 1957 c-3 -7 -4 -138 -3 -292 l3 -280 593 -3 592 -2 0 295 0
295 -590 0 c-467 0 -592 -3 -595 -13z"/>
<path d="M5872 1678 l3 -293 575 0 575 0 0 290 0 290 -578 3 -577 2 2 -292z"/>
</g>
</svg>
