<svg id="svg" version="1.1" xmlns="http://www.w3.org/2000/svg" xmlns:xlink="http://www.w3.org/1999/xlink" width="400" height="400" viewBox="0, 0, 400,400"><g id="svgg"><path id="path0" d="M58.800 116.780 L 58.800 166.400 81.300 166.399 C 108.933 166.397,112.979 165.938,121.000 161.887 C 135.028 154.802,137.277 131.980,124.933 121.975 C 122.997 120.406,118.537 118.022,117.514 118.009 C 116.726 117.999,113.995 116.765,114.011 116.426 C 114.017 116.302,115.197 115.675,116.634 115.033 C 126.022 110.838,131.327 96.153,127.456 85.076 C 124.801 77.478,119.523 72.105,111.500 68.833 C 108.035 67.420,108.044 67.421,83.300 67.290 L 58.800 67.160 58.800 116.780 M101.240 83.634 C 112.251 87.147,113.780 102.317,103.600 107.057 C 100.000 108.733,76.731 109.771,75.280 108.320 C 74.759 107.799,74.555 83.979,75.067 83.467 C 75.528 83.005,99.754 83.160,101.240 83.634 M142.000 133.400 L 142.000 166.400 150.000 166.400 L 158.000 166.400 158.025 150.100 C 158.059 127.381,158.498 124.619,162.725 120.503 C 165.149 118.142,167.517 117.147,172.200 116.521 L 174.600 116.200 174.709 108.242 L 174.817 100.284 172.455 100.531 C 167.983 100.999,162.884 103.600,161.549 106.096 C 161.287 106.584,160.811 107.246,160.490 107.568 C 160.168 107.889,159.727 108.663,159.509 109.289 C 158.655 111.738,158.000 109.855,158.000 104.951 L 158.000 100.400 150.000 100.400 L 142.000 100.400 142.000 133.400 M105.461 126.270 C 116.730 129.040,119.269 145.241,109.189 150.065 C 105.767 151.703,104.672 151.800,89.600 151.800 L 75.000 151.800 74.894 139.204 C 74.836 132.276,74.878 126.374,74.987 126.089 C 75.233 125.450,102.788 125.613,105.461 126.270 M217.200 283.377 L 217.200 333.200 235.900 333.190 C 265.918 333.173,270.628 332.669,278.995 328.584 C 297.845 319.379,294.199 287.704,273.883 284.168 C 271.946 283.831,272.141 283.259,274.623 282.000 C 292.060 273.157,290.856 245.752,272.636 236.782 C 266.534 233.778,267.721 233.893,241.100 233.715 L 217.200 233.554 217.200 283.377 M258.202 250.135 C 265.535 251.534,268.382 255.055,268.394 262.742 C 268.411 273.050,264.109 275.327,245.000 275.123 L 233.400 275.000 233.294 262.804 C 233.236 256.096,233.275 250.381,233.381 250.104 C 233.662 249.372,254.335 249.398,258.202 250.135 M318.346 266.207 C 310.549 268.344,305.781 273.284,304.182 280.884 C 303.171 285.693,302.998 285.440,307.500 285.732 C 309.645 285.870,312.345 286.103,313.500 286.248 L 315.600 286.511 315.602 285.356 C 315.615 278.979,323.565 275.218,331.294 277.933 C 335.692 279.478,337.957 286.711,334.560 288.365 C 333.922 288.676,333.087 289.081,332.705 289.265 C 332.323 289.449,331.659 289.600,331.229 289.600 C 330.799 289.600,330.348 289.760,330.227 289.956 C 330.106 290.151,329.421 290.408,328.704 290.526 C 325.100 291.117,318.549 292.873,317.105 293.634 C 316.723 293.835,316.046 294.000,315.600 294.000 C 315.154 294.000,314.477 294.149,314.095 294.331 C 303.558 299.358,299.600 304.565,299.600 313.400 C 299.600 331.005,322.201 339.742,334.898 327.045 C 336.085 325.858,336.925 326.095,337.270 327.713 C 337.448 328.545,337.872 329.765,338.212 330.423 L 338.831 331.621 344.916 331.510 L 351.000 331.400 350.917 330.400 C 350.871 329.850,350.636 328.410,350.395 327.200 C 350.153 325.990,349.788 318.970,349.584 311.600 C 348.984 289.953,348.477 279.502,347.956 278.000 C 345.554 271.084,342.268 268.042,335.256 266.246 C 332.150 265.450,321.201 265.425,318.346 266.207 M260.173 292.430 C 264.086 292.894,264.429 292.989,267.307 294.390 C 275.129 298.199,276.097 311.383,268.889 315.920 C 264.871 318.448,261.366 318.878,246.000 318.725 L 233.400 318.600 233.294 305.848 C 233.219 296.771,233.320 292.938,233.643 292.548 C 234.217 291.857,254.577 291.766,260.173 292.430 M334.220 302.677 C 335.209 303.667,334.877 311.047,333.728 313.600 C 332.177 317.044,328.212 319.600,324.419 319.600 C 320.526 319.600,317.500 316.564,317.500 312.659 C 317.500 308.531,318.756 307.306,325.120 305.226 C 327.135 304.568,329.373 303.708,330.092 303.316 C 331.292 302.662,332.593 302.140,333.271 302.040 C 333.421 302.018,333.847 302.305,334.220 302.677 " stroke="none" fill="#f9faf9" fill-rule="evenodd"></path><path id="path1" d="M32.400 116.400 L 32.400 200.400 116.000 200.400 L 199.600 200.400 199.600 284.000 L 199.600 367.600 283.600 367.600 L 367.600 367.600 367.600 283.600 L 367.600 199.600 284.000 199.600 L 200.400 199.600 200.400 116.000 L 200.400 32.400 116.400 32.400 L 32.400 32.400 32.400 116.400 M107.523 66.827 C 108.555 67.061,109.713 67.421,110.095 67.627 C 110.477 67.832,111.033 68.000,111.332 68.000 C 113.705 68.000,120.909 73.147,124.000 77.052 C 133.239 88.723,130.623 106.966,118.588 114.808 L 115.929 116.540 117.464 117.109 C 126.547 120.471,131.857 126.567,133.501 135.518 C 134.148 139.043,133.426 147.934,132.410 148.950 C 132.185 149.175,132.000 149.763,132.000 150.256 C 132.000 150.749,131.820 151.264,131.600 151.400 C 131.380 151.536,131.200 151.997,131.200 152.424 C 131.200 152.851,131.064 153.200,130.898 153.200 C 130.731 153.200,130.356 153.740,130.065 154.399 C 129.462 155.761,125.603 159.879,123.800 161.084 C 121.683 162.498,118.789 164.000,118.180 164.000 C 117.855 164.000,117.277 164.162,116.895 164.361 C 115.941 164.857,113.563 165.512,110.000 166.263 C 105.789 167.149,58.887 167.580,58.353 166.737 C 57.955 166.110,57.870 67.063,58.267 66.667 C 58.729 66.204,105.452 66.356,107.523 66.827 M75.600 95.600 L 75.600 107.600 87.981 107.600 C 96.332 107.600,100.727 107.451,101.481 107.144 C 104.559 105.889,105.339 105.447,106.355 104.384 C 106.962 103.749,107.786 102.548,108.188 101.715 C 108.589 100.882,109.071 99.887,109.259 99.505 C 109.715 98.577,109.696 92.970,109.233 92.095 C 109.032 91.713,108.639 90.788,108.360 90.040 C 107.717 88.315,104.587 85.200,103.497 85.200 C 103.202 85.200,102.789 85.042,102.580 84.850 C 101.787 84.119,94.596 83.600,85.273 83.600 L 75.600 83.600 75.600 95.600 M158.800 104.400 L 159.000 109.000 159.676 107.600 C 160.954 104.955,165.999 100.800,167.932 100.800 C 168.321 100.800,168.819 100.621,169.038 100.402 C 169.256 100.184,170.548 99.889,171.909 99.746 C 175.696 99.351,175.600 99.126,175.600 108.369 C 175.600 117.079,175.566 117.200,173.126 117.200 C 166.110 117.200,160.543 121.815,159.374 128.600 C 159.222 129.480,158.980 138.480,158.835 148.600 C 158.691 158.720,158.534 167.045,158.486 167.100 C 158.147 167.493,142.090 167.130,141.680 166.720 C 140.978 166.018,140.985 100.775,141.688 100.072 C 142.047 99.713,144.337 99.613,150.388 99.692 L 158.600 99.800 158.800 104.400 M75.600 138.757 L 75.600 151.200 89.168 151.200 C 107.039 151.200,109.876 150.553,112.878 145.791 C 113.818 144.300,114.094 143.415,114.669 140.044 C 115.398 135.771,112.291 129.828,108.460 128.166 C 107.657 127.818,106.640 127.329,106.200 127.080 C 105.658 126.773,100.590 126.576,90.500 126.470 L 75.600 126.314 75.600 138.757 M263.567 233.215 C 272.542 234.631,280.925 239.919,283.839 246.003 C 284.258 246.876,284.735 247.593,284.900 247.595 C 285.065 247.598,285.200 247.960,285.200 248.400 C 285.200 248.840,285.359 249.200,285.553 249.200 C 285.748 249.200,286.010 249.605,286.136 250.100 C 286.261 250.595,286.729 252.350,287.175 254.000 C 288.644 259.432,288.006 266.073,285.553 270.895 C 285.359 271.277,285.200 271.862,285.200 272.195 C 285.200 272.528,285.020 272.800,284.800 272.800 C 284.580 272.800,284.400 272.993,284.400 273.228 C 284.400 275.134,278.101 281.428,275.100 282.520 C 274.007 282.918,274.274 283.509,275.687 283.819 C 276.395 283.975,277.250 284.247,277.587 284.425 C 277.924 284.602,278.785 284.983,279.500 285.271 C 280.215 285.560,280.800 285.931,280.800 286.098 C 280.800 286.264,281.081 286.400,281.424 286.400 C 282.601 286.400,288.170 292.437,289.357 295.000 C 289.969 296.320,290.610 297.674,290.782 298.010 C 291.947 300.285,292.521 305.337,292.045 309.133 C 291.085 316.796,288.705 322.099,284.652 325.600 C 284.016 326.150,283.065 326.969,282.539 327.420 C 282.013 327.871,280.552 328.747,279.292 329.366 C 278.031 329.985,276.687 330.651,276.305 330.846 C 275.923 331.041,275.259 331.200,274.829 331.200 C 274.399 331.200,273.936 331.380,273.800 331.600 C 273.664 331.820,273.012 332.000,272.350 332.000 C 271.689 332.000,270.801 332.185,270.378 332.412 C 267.997 333.686,220.002 334.897,217.033 333.757 C 216.387 333.509,216.004 235.097,216.643 233.433 C 216.938 232.663,258.838 232.469,263.567 233.215 M234.000 262.630 L 234.000 274.460 246.700 274.327 C 259.267 274.195,259.421 274.183,261.400 273.206 C 264.621 271.616,267.200 268.782,267.200 266.832 C 267.200 266.400,267.380 265.936,267.600 265.800 C 268.880 265.009,267.523 257.214,265.728 255.049 C 263.952 252.908,263.334 252.477,260.281 251.250 C 259.535 250.950,254.967 250.800,246.581 250.800 L 234.000 250.800 234.000 262.630 M333.400 265.144 C 338.507 265.915,341.255 267.211,344.200 270.235 C 346.710 272.812,346.912 273.087,347.555 274.800 C 347.844 275.570,348.228 276.560,348.407 277.000 C 349.288 279.161,349.628 284.009,350.021 300.000 C 350.459 317.841,350.874 325.883,351.536 329.400 C 352.048 332.122,352.364 332.000,344.822 332.000 L 338.091 332.000 337.446 330.640 C 337.091 329.891,336.800 329.027,336.800 328.720 C 336.800 327.196,335.887 327.285,333.502 329.040 C 325.711 334.776,316.042 335.414,308.416 330.696 C 306.047 329.231,302.582 325.859,301.929 324.384 C 301.641 323.733,301.269 323.200,301.102 323.200 C 300.936 323.200,300.800 322.876,300.800 322.480 C 300.800 322.084,300.640 321.589,300.444 321.380 C 298.396 319.192,298.390 307.558,300.436 305.420 C 300.636 305.211,300.800 304.716,300.800 304.320 C 300.800 303.924,300.980 303.600,301.200 303.600 C 301.420 303.600,301.600 303.330,301.600 303.000 C 301.600 302.670,301.780 302.400,302.000 302.400 C 302.220 302.400,302.400 302.155,302.400 301.855 C 302.400 301.555,303.268 300.520,304.329 299.555 C 307.127 297.009,307.633 296.642,310.033 295.417 C 311.225 294.808,312.513 294.151,312.895 293.955 C 313.277 293.760,313.954 293.600,314.400 293.600 C 314.846 293.600,315.523 293.439,315.905 293.243 C 317.143 292.606,322.977 290.791,323.772 290.795 C 324.196 290.798,325.096 290.632,325.772 290.427 C 326.447 290.222,327.810 289.838,328.800 289.573 C 334.826 287.962,335.200 287.692,335.200 284.949 C 335.200 280.479,332.598 278.375,326.708 278.079 C 319.863 277.734,316.400 280.160,316.400 285.297 C 316.400 287.098,315.762 287.253,310.125 286.824 C 302.946 286.278,303.034 286.324,303.147 283.164 C 303.620 269.989,316.133 262.535,333.400 265.144 M234.000 305.656 L 234.000 318.112 248.500 317.875 C 263.665 317.628,263.123 317.686,267.800 315.799 C 268.876 315.365,271.600 312.475,271.600 311.766 C 271.600 311.455,271.780 311.200,272.000 311.200 C 272.220 311.200,272.400 310.704,272.400 310.097 C 272.400 309.491,272.586 308.366,272.812 307.597 C 274.119 303.170,270.836 296.471,266.498 294.712 C 262.920 293.262,262.169 293.200,248.072 293.200 L 234.000 293.200 234.000 305.656 M330.800 303.744 C 330.030 304.237,328.590 304.874,327.600 305.159 C 326.610 305.445,325.487 305.840,325.105 306.039 C 324.723 306.238,324.172 306.400,323.881 306.400 C 318.874 306.400,316.215 313.036,319.789 316.611 L 321.579 318.400 324.579 318.400 C 331.035 318.400,333.600 315.373,333.600 307.755 C 333.600 302.175,333.491 302.020,330.800 303.744 " stroke="none" fill="#346c1c" fill-rule="evenodd"></path><path id="path2" d="M58.267 66.667 C 57.934 67.000,57.910 165.700,58.243 166.567 C 58.500 167.238,96.334 167.478,104.400 166.860 C 106.270 166.717,96.730 166.600,83.200 166.600 L 58.600 166.600 58.600 116.500 C 58.600 88.945,58.585 66.400,58.567 66.400 C 58.548 66.400,58.413 66.520,58.267 66.667 M105.000 66.823 C 107.137 67.265,108.604 67.250,107.200 66.800 C 106.650 66.624,105.570 66.483,104.800 66.486 L 103.400 66.492 105.000 66.823 M114.833 69.735 C 115.989 70.673,118.800 72.362,118.799 72.119 C 118.799 71.771,115.517 69.600,114.991 69.600 C 114.813 69.600,114.742 69.661,114.833 69.735 M121.387 74.722 C 122.701 76.085,123.848 77.200,123.936 77.200 C 124.366 77.200,121.065 73.693,119.800 72.806 C 119.360 72.497,120.074 73.360,121.387 74.722 M125.279 79.604 C 125.964 80.707,126.594 81.539,126.679 81.455 C 126.890 81.243,124.668 77.628,124.317 77.613 C 124.161 77.606,124.594 78.502,125.279 79.604 M75.294 95.700 L 75.200 108.000 87.900 107.906 L 100.600 107.812 88.106 107.700 L 75.612 107.589 75.500 95.494 L 75.388 83.400 75.294 95.700 M96.433 83.751 C 96.525 83.834,97.860 84.002,99.400 84.126 C 101.552 84.298,101.830 84.269,100.600 83.998 C 98.983 83.642,96.126 83.473,96.433 83.751 M104.400 85.573 C 104.400 85.808,104.572 86.000,104.782 86.000 C 104.992 86.000,105.614 86.450,106.164 87.000 C 107.257 88.094,108.008 88.374,107.185 87.381 C 106.351 86.377,104.400 85.110,104.400 85.573 M128.698 87.600 C 129.074 89.450,129.063 97.424,128.683 99.200 C 128.468 100.204,128.554 100.090,128.985 98.800 C 129.753 96.507,129.748 89.995,128.976 87.800 C 128.442 86.280,128.429 86.270,128.698 87.600 M150.100 99.900 L 158.400 100.016 158.400 104.585 C 158.400 107.097,158.535 109.237,158.700 109.339 C 159.004 109.527,158.906 101.022,158.594 100.100 C 158.465 99.717,156.472 99.621,150.113 99.691 L 141.800 99.783 150.100 99.900 M173.000 99.963 L 175.000 100.200 175.000 108.400 L 175.000 116.600 173.000 116.837 L 171.000 117.074 172.820 117.137 C 175.597 117.233,175.600 117.225,175.600 108.400 C 175.600 99.575,175.597 99.567,172.820 99.663 L 171.000 99.726 173.000 99.963 M169.000 100.400 C 168.708 100.873,169.099 100.873,170.200 100.400 C 170.971 100.069,170.969 100.055,170.124 100.028 C 169.642 100.013,169.136 100.180,169.000 100.400 M141.297 133.220 C 141.223 158.477,141.313 166.353,141.680 166.720 C 142.491 167.531,158.242 167.388,158.557 166.567 C 158.691 166.219,158.758 158.074,158.706 148.467 L 158.613 131.000 158.406 148.800 L 158.200 166.600 150.000 166.600 L 141.800 166.600 141.597 133.400 L 141.393 100.200 141.297 133.220 M107.695 102.623 C 107.203 103.374,106.800 104.123,106.800 104.287 C 106.800 104.451,107.266 103.900,107.836 103.062 C 108.405 102.224,108.808 101.475,108.731 101.398 C 108.654 101.320,108.188 101.872,107.695 102.623 M162.615 104.046 C 161.177 105.391,160.000 106.644,160.000 106.831 C 160.000 107.018,161.035 106.142,162.300 104.885 C 163.565 103.628,164.960 102.386,165.400 102.124 C 165.840 101.861,165.982 101.636,165.715 101.624 C 165.448 101.611,164.053 102.701,162.615 104.046 M125.013 108.086 C 124.603 108.779,123.097 110.518,121.665 111.950 C 120.234 113.381,119.588 114.174,120.231 113.711 C 122.231 112.271,126.354 107.421,125.935 107.001 C 125.838 106.904,125.423 107.392,125.013 108.086 M115.840 115.893 L 114.679 116.502 116.009 117.061 C 116.741 117.368,117.533 117.548,117.770 117.459 C 118.006 117.371,117.680 117.161,117.045 116.992 L 115.891 116.686 116.845 115.952 C 117.985 115.076,117.458 115.045,115.840 115.893 M168.800 117.600 C 167.996 117.857,167.957 117.923,168.600 117.932 C 169.040 117.938,169.760 117.789,170.200 117.600 C 171.219 117.162,170.168 117.162,168.800 117.600 M163.443 120.446 C 162.415 121.351,161.307 122.656,160.981 123.346 C 160.655 124.036,160.616 124.240,160.894 123.800 C 161.172 123.360,162.361 122.055,163.536 120.900 C 166.090 118.390,166.042 118.158,163.443 120.446 M124.256 120.943 C 126.980 122.969,127.764 123.804,129.745 126.795 C 130.545 128.002,131.200 128.860,131.200 128.702 C 131.200 127.352,126.584 122.007,123.738 120.062 C 121.477 118.517,121.852 119.155,124.256 120.943 M75.294 138.700 L 75.400 151.400 87.900 151.409 L 100.400 151.417 88.000 151.303 L 75.600 151.189 75.600 138.760 L 75.600 126.331 90.083 126.465 C 98.049 126.539,104.034 126.486,103.383 126.347 C 102.733 126.208,96.122 126.073,88.694 126.047 L 75.189 126.000 75.294 138.700 M159.054 128.754 C 158.900 129.718,158.858 130.591,158.961 130.694 C 159.230 130.963,159.715 128.145,159.507 127.522 C 159.412 127.236,159.208 127.790,159.054 128.754 M110.879 129.703 C 111.693 130.503,112.642 131.708,112.989 132.379 C 113.337 133.051,113.724 133.600,113.851 133.600 C 114.425 133.600,111.939 130.106,110.739 129.228 L 109.400 128.246 110.879 129.703 M132.229 131.600 C 132.359 132.150,132.716 133.590,133.022 134.800 L 133.578 137.000 133.350 135.001 C 133.224 133.901,132.867 132.461,132.556 131.801 C 132.087 130.803,132.032 130.769,132.229 131.600 M114.056 135.000 C 114.056 135.440,114.211 136.160,114.400 136.600 L 114.744 137.400 114.744 136.600 C 114.744 136.160,114.589 135.440,114.400 135.000 L 114.056 134.200 114.056 135.000 M133.720 139.200 C 133.720 140.410,133.795 140.905,133.887 140.300 C 133.978 139.695,133.978 138.705,133.887 138.100 C 133.795 137.495,133.720 137.990,133.720 139.200 M114.249 141.815 C 114.112 142.173,114.016 142.856,114.036 143.333 C 114.062 143.947,114.185 143.808,114.459 142.856 C 114.857 141.472,114.694 140.658,114.249 141.815 M133.000 144.400 C 132.844 145.747,132.801 146.934,132.905 147.038 C 133.009 147.142,133.219 146.122,133.371 144.771 C 133.524 143.421,133.567 142.234,133.467 142.133 C 133.366 142.033,133.156 143.053,133.000 144.400 M113.039 145.525 C 112.698 146.185,112.123 147.020,111.762 147.381 C 111.400 147.742,111.199 148.132,111.314 148.247 C 111.429 148.362,112.098 147.621,112.800 146.600 C 113.502 145.579,113.983 144.650,113.868 144.535 C 113.753 144.420,113.380 144.865,113.039 145.525 M108.600 149.426 C 107.500 149.956,106.832 150.392,107.116 150.395 C 107.702 150.401,110.800 148.885,110.800 148.592 C 110.800 148.351,110.956 148.292,108.600 149.426 M104.200 150.800 L 103.400 151.144 104.200 151.144 C 104.640 151.144,105.360 150.989,105.800 150.800 L 106.600 150.456 105.800 150.456 C 105.360 150.456,104.640 150.611,104.200 150.800 M129.292 155.029 C 128.797 155.783,128.472 156.400,128.569 156.400 C 128.847 156.400,130.504 153.971,130.339 153.806 C 130.257 153.724,129.786 154.274,129.292 155.029 M126.621 158.329 L 125.443 159.800 126.921 158.422 C 128.449 156.997,128.610 156.780,128.100 156.829 C 127.935 156.845,127.270 157.520,126.621 158.329 M122.165 161.595 C 121.948 161.812,120.877 162.433,119.785 162.974 C 118.693 163.515,118.019 163.967,118.286 163.979 C 118.553 163.991,119.633 163.528,120.686 162.951 C 122.824 161.778,123.576 161.200,122.960 161.200 C 122.740 161.200,122.382 161.378,122.165 161.595 M113.200 165.200 C 112.667 165.545,112.667 165.588,113.200 165.588 C 113.530 165.588,114.070 165.413,114.400 165.200 C 114.933 164.855,114.933 164.812,114.400 164.812 C 114.070 164.812,113.530 164.987,113.200 165.200 M109.200 166.000 C 107.856 166.431,109.308 166.431,111.000 166.000 C 112.078 165.726,112.098 165.694,111.200 165.687 C 110.650 165.683,109.750 165.824,109.200 166.000 M216.643 233.433 C 216.004 235.097,216.387 333.509,217.033 333.757 C 217.381 333.891,227.236 333.957,238.933 333.905 L 260.200 333.810 238.600 333.605 L 217.000 333.400 217.000 283.400 L 217.000 233.400 240.764 233.400 C 253.834 233.400,263.824 233.275,262.964 233.123 C 259.312 232.476,216.901 232.760,216.643 233.433 M266.400 234.000 C 266.730 234.213,267.270 234.388,267.600 234.388 C 268.133 234.388,268.133 234.345,267.600 234.000 C 267.270 233.787,266.730 233.612,266.400 233.612 C 265.867 233.612,265.867 233.655,266.400 234.000 M275.561 238.000 C 278.510 240.032,279.309 240.452,278.294 239.437 C 277.588 238.731,273.340 236.000,272.948 236.000 C 272.788 236.000,273.964 236.900,275.561 238.000 M281.211 242.645 C 281.223 243.052,283.573 245.927,283.589 245.555 C 283.595 245.420,283.060 244.631,282.400 243.800 C 281.740 242.969,281.205 242.450,281.211 242.645 M233.600 262.629 L 233.600 274.859 246.500 274.729 C 258.110 274.613,259.520 274.527,260.600 273.875 C 261.260 273.476,261.440 273.273,261.000 273.425 C 258.751 274.200,256.047 274.367,245.500 274.383 L 234.000 274.400 234.000 262.606 L 234.000 250.811 246.700 250.700 L 259.400 250.588 246.500 250.494 L 233.600 250.400 233.600 262.629 M263.600 252.471 C 263.600 252.597,264.230 253.387,265.000 254.228 C 265.770 255.069,266.400 255.576,266.400 255.357 C 266.400 255.137,265.770 254.346,265.000 253.600 C 264.230 252.854,263.600 252.346,263.600 252.471 M287.399 259.272 C 287.400 261.762,287.265 264.610,287.100 265.600 C 286.841 267.159,286.879 267.105,287.384 265.200 C 287.974 262.969,288.136 257.368,287.659 255.672 C 287.516 255.162,287.398 256.782,287.399 259.272 M267.212 258.000 C 267.212 258.330,267.387 258.870,267.600 259.200 C 267.945 259.733,267.988 259.733,267.988 259.200 C 267.988 258.870,267.813 258.330,267.600 258.000 C 267.255 257.467,267.212 257.467,267.212 258.000 M322.080 264.740 C 321.574 264.883,323.554 265.008,326.480 265.018 C 329.406 265.028,331.350 264.911,330.800 264.758 C 329.538 264.407,323.304 264.394,322.080 264.740 M317.000 265.814 C 315.467 266.516,316.060 266.515,318.600 265.809 C 320.168 265.374,320.341 265.255,319.400 265.259 C 318.740 265.263,317.660 265.512,317.000 265.814 M334.000 265.625 C 334.990 265.799,336.340 266.052,337.000 266.187 C 337.880 266.367,337.773 266.270,336.600 265.822 C 335.720 265.487,334.370 265.233,333.600 265.259 C 332.272 265.304,332.293 265.323,334.000 265.625 M338.620 266.724 C 339.138 267.165,341.200 268.027,341.200 267.802 C 341.200 267.581,338.959 266.400,338.540 266.400 C 338.375 266.400,338.411 266.546,338.620 266.724 M266.218 269.165 C 265.887 269.805,265.135 270.708,264.547 271.170 C 263.959 271.633,263.573 272.107,263.690 272.223 C 263.934 272.468,267.200 268.859,267.200 268.344 C 267.200 267.687,266.817 268.007,266.218 269.165 M309.673 269.848 C 308.525 270.865,307.217 272.260,306.766 272.948 C 305.974 274.158,305.984 274.155,307.065 272.847 C 307.681 272.103,309.150 270.708,310.329 269.747 C 311.508 268.786,312.313 268.000,312.117 268.000 C 311.921 268.000,310.821 268.832,309.673 269.848 M344.382 270.600 C 345.347 271.700,346.220 272.690,346.322 272.800 C 346.425 272.910,346.319 272.640,346.087 272.200 C 345.855 271.760,344.982 270.770,344.147 270.000 C 342.703 268.669,342.715 268.699,344.382 270.600 M283.054 275.017 C 282.437 275.993,280.732 277.906,279.266 279.267 C 277.799 280.630,277.229 281.319,278.000 280.801 C 280.231 279.299,284.838 273.905,284.327 273.394 C 284.244 273.311,283.672 274.042,283.054 275.017 M347.078 274.595 C 347.444 275.362,347.798 275.935,347.865 275.869 C 348.084 275.649,347.032 273.200,346.719 273.200 C 346.551 273.200,346.712 273.828,347.078 274.595 M325.100 277.882 C 325.595 277.978,326.405 277.978,326.900 277.882 C 327.395 277.787,326.990 277.709,326.000 277.709 C 325.010 277.709,324.605 277.787,325.100 277.882 M303.651 279.446 C 303.370 280.301,303.212 281.720,303.302 282.600 C 303.463 284.171,303.467 284.165,303.533 282.274 C 303.570 281.214,303.792 279.989,304.026 279.552 C 304.260 279.114,304.387 278.561,304.308 278.324 C 304.229 278.086,303.933 278.591,303.651 279.446 M319.958 278.532 C 318.616 279.135,317.600 279.987,317.600 280.510 C 317.600 280.737,317.918 280.556,318.306 280.108 C 318.695 279.660,319.820 279.011,320.806 278.666 C 321.793 278.321,322.240 278.044,321.800 278.052 C 321.360 278.059,320.531 278.275,319.958 278.532 M330.063 278.390 C 331.445 278.807,333.600 280.085,333.600 280.486 C 333.600 280.659,333.802 280.800,334.049 280.800 C 334.817 280.800,333.575 279.603,331.943 278.771 C 331.112 278.347,330.110 278.015,329.716 278.034 C 329.265 278.056,329.393 278.187,330.063 278.390 M349.105 283.400 C 349.219 285.600,349.376 287.475,349.456 287.567 C 349.727 287.880,349.506 281.802,349.202 280.600 C 349.035 279.940,348.992 281.200,349.105 283.400 M316.465 282.889 C 316.219 283.830,315.970 285.050,315.909 285.600 C 315.818 286.433,315.533 286.641,314.200 286.843 L 312.600 287.086 314.020 287.143 C 315.699 287.210,316.400 286.632,316.400 285.180 C 316.400 284.597,316.601 283.543,316.846 282.839 C 317.092 282.135,317.207 281.473,317.101 281.368 C 316.996 281.263,316.710 281.947,316.465 282.889 M273.772 282.845 C 273.459 283.352,274.307 284.007,275.200 283.947 C 275.598 283.921,275.554 283.844,275.071 283.719 C 274.642 283.608,274.431 283.297,274.558 282.965 C 274.814 282.298,274.171 282.200,273.772 282.845 M335.200 285.151 C 335.200 286.717,335.022 287.230,334.300 287.748 C 333.413 288.384,333.415 288.387,334.500 287.933 C 335.498 287.514,336.318 283.200,335.400 283.200 C 335.290 283.200,335.200 284.078,335.200 285.151 M305.800 286.423 C 306.680 286.605,308.390 286.739,309.600 286.721 L 311.800 286.687 309.600 286.383 C 308.390 286.216,306.680 286.082,305.800 286.086 L 304.200 286.092 305.800 286.423 M283.219 287.643 C 283.209 287.776,284.065 288.766,285.121 289.843 C 286.178 290.919,287.432 292.340,287.909 293.000 C 288.385 293.660,288.780 294.008,288.787 293.772 C 288.801 293.326,283.252 287.218,283.219 287.643 M328.800 289.600 C 328.267 289.945,328.267 289.988,328.800 289.988 C 329.130 289.988,329.670 289.813,330.000 289.600 C 330.533 289.255,330.533 289.212,330.000 289.212 C 329.670 289.212,329.130 289.387,328.800 289.600 M325.600 290.406 C 325.178 290.682,325.415 290.723,326.400 290.542 C 328.125 290.225,328.451 289.998,327.167 290.006 C 326.635 290.009,325.930 290.189,325.600 290.406 M349.893 305.600 C 350.010 313.850,350.246 321.950,350.418 323.600 C 350.613 325.475,350.646 324.126,350.505 320.000 C 350.381 316.370,350.145 308.270,349.981 302.000 C 349.723 292.205,349.711 292.712,349.893 305.600 M321.200 291.434 C 319.925 291.956,319.907 291.984,321.000 291.747 C 321.660 291.604,322.830 291.353,323.600 291.190 C 324.961 290.900,324.967 290.892,323.800 290.876 C 323.140 290.868,321.970 291.119,321.200 291.434 M233.694 305.500 L 233.800 318.200 245.229 318.306 C 251.515 318.364,257.905 318.270,259.429 318.096 C 261.010 317.915,256.147 317.848,248.100 317.940 L 234.000 318.101 234.000 305.656 L 234.000 293.210 247.900 293.100 L 261.800 292.989 247.694 292.895 L 233.589 292.800 233.694 305.500 M263.200 293.600 C 263.530 293.813,264.070 293.988,264.400 293.988 C 264.933 293.988,264.933 293.945,264.400 293.600 C 264.070 293.387,263.530 293.212,263.200 293.212 C 262.667 293.212,262.667 293.255,263.200 293.600 M313.000 294.000 C 312.708 294.473,313.099 294.473,314.200 294.000 C 314.971 293.669,314.969 293.655,314.124 293.628 C 313.642 293.613,313.136 293.780,313.000 294.000 M266.800 294.777 C 267.570 295.185,268.704 295.987,269.321 296.560 C 270.581 297.730,271.184 297.948,270.349 296.932 C 269.667 296.101,266.393 293.994,265.822 294.018 C 265.590 294.027,266.030 294.369,266.800 294.777 M310.624 295.013 C 309.636 295.760,310.285 295.752,311.600 295.000 C 312.180 294.668,312.348 294.428,312.000 294.427 C 311.670 294.426,311.051 294.690,310.624 295.013 M308.500 296.088 C 308.005 296.327,307.600 296.679,307.600 296.870 C 307.600 297.062,308.050 296.924,308.600 296.563 C 310.067 295.602,310.016 295.357,308.500 296.088 M304.519 299.362 C 303.243 300.552,302.290 301.601,302.400 301.695 C 302.510 301.788,303.651 300.815,304.935 299.532 C 307.872 296.599,307.601 296.488,304.519 299.362 M291.506 302.000 C 291.856 304.753,291.860 306.550,291.527 310.600 C 291.288 313.512,291.321 313.416,291.896 309.538 C 292.476 305.628,292.474 305.051,291.877 302.538 C 291.247 299.884,291.236 299.867,291.506 302.000 M272.480 302.000 C 272.480 302.550,272.624 303.450,272.800 304.000 L 273.120 305.000 273.120 304.000 C 273.120 303.450,272.976 302.550,272.800 302.000 L 272.480 301.000 272.480 302.000 M333.753 307.400 C 333.753 310.040,333.818 311.068,333.897 309.684 C 333.975 308.301,333.974 306.141,333.895 304.884 C 333.816 303.628,333.752 304.760,333.753 307.400 M329.780 303.930 C 329.571 304.112,328.634 304.501,327.698 304.795 C 326.762 305.089,326.073 305.407,326.168 305.501 C 326.263 305.596,327.029 305.438,327.870 305.150 C 329.520 304.586,331.236 303.600,330.569 303.600 C 330.344 303.600,329.989 303.749,329.780 303.930 M272.600 308.400 C 272.446 309.310,272.411 310.144,272.521 310.254 C 272.631 310.364,272.846 309.710,273.000 308.800 C 273.154 307.890,273.189 307.056,273.079 306.946 C 272.969 306.836,272.754 307.490,272.600 308.400 M299.429 307.829 C 299.281 308.415,299.238 308.972,299.332 309.066 C 299.427 309.160,299.624 308.758,299.771 308.171 C 299.919 307.585,299.962 307.028,299.868 306.934 C 299.773 306.840,299.576 307.242,299.429 307.829 M319.241 308.614 C 318.559 309.392,318.002 310.157,318.004 310.314 C 318.007 310.471,318.468 310.018,319.028 309.306 C 319.589 308.595,320.352 307.836,320.724 307.619 C 321.096 307.402,321.194 307.219,320.941 307.212 C 320.689 307.205,319.924 307.836,319.241 308.614 M298.874 313.000 C 298.835 315.292,299.030 317.254,299.412 318.400 C 299.743 319.390,299.903 319.660,299.769 319.000 C 299.634 318.340,299.392 315.910,299.230 313.600 L 298.936 309.400 298.874 313.000 M317.701 312.600 C 317.705 313.480,317.787 313.793,317.883 313.295 C 317.979 312.798,317.975 312.078,317.875 311.695 C 317.775 311.313,317.696 311.720,317.701 312.600 M270.097 313.914 C 268.396 315.759,268.653 316.002,270.400 314.200 C 271.140 313.437,271.668 312.742,271.573 312.657 C 271.478 312.571,270.814 313.137,270.097 313.914 M332.099 314.923 L 330.798 317.000 332.193 315.400 C 332.960 314.520,333.591 313.575,333.594 313.300 C 333.603 312.564,333.521 312.653,332.099 314.923 M318.427 315.600 C 318.983 316.714,320.782 318.404,321.400 318.391 C 321.620 318.386,321.351 318.037,320.801 317.615 C 320.252 317.193,319.381 316.342,318.866 315.724 C 317.990 314.673,317.961 314.665,318.427 315.600 M267.380 315.933 C 267.171 316.115,266.217 316.488,265.261 316.760 C 264.305 317.033,263.616 317.349,263.731 317.464 C 263.846 317.579,264.629 317.438,265.470 317.150 C 267.120 316.586,268.836 315.600,268.169 315.600 C 267.944 315.600,267.589 315.750,267.380 315.933 M288.510 320.149 C 288.047 321.101,286.621 323.032,285.341 324.440 C 283.460 326.509,283.488 326.844,285.388 324.999 C 287.143 323.295,289.935 319.001,289.543 318.609 C 289.437 318.504,288.972 319.197,288.510 320.149 M322.882 318.859 C 323.584 319.116,324.566 319.119,325.682 318.870 C 327.355 318.496,327.327 318.485,324.600 318.474 C 322.300 318.465,321.993 318.534,322.882 318.859 M301.600 323.717 C 301.600 324.291,303.409 326.786,303.991 327.013 C 304.364 327.160,304.277 326.905,303.753 326.322 C 303.298 325.815,302.627 324.955,302.262 324.411 C 301.898 323.867,301.600 323.555,301.600 323.717 M334.962 327.700 C 334.202 328.598,334.202 328.598,335.025 327.905 C 335.972 327.109,336.800 327.594,336.800 328.947 C 336.800 329.379,336.907 329.626,337.038 329.495 C 337.448 329.086,336.763 326.800,336.230 326.800 C 335.952 326.800,335.381 327.205,334.962 327.700 M350.856 327.400 C 350.856 327.840,351.011 328.560,351.200 329.000 L 351.544 329.800 351.544 329.000 C 351.544 328.560,351.389 327.840,351.200 327.400 L 350.856 326.600 350.856 327.400 M305.601 328.537 C 306.151 329.162,306.960 329.859,307.400 330.086 C 308.242 330.520,308.218 330.493,306.001 328.597 L 304.603 327.400 305.601 328.537 M278.400 329.438 C 277.410 329.963,276.820 330.394,277.088 330.396 C 277.508 330.399,280.284 329.012,280.767 328.557 C 281.212 328.137,280.012 328.584,278.400 329.438 M331.894 329.696 C 330.846 330.370,330.069 331.002,330.166 331.100 C 330.354 331.287,334.000 328.891,334.000 328.581 C 334.000 328.336,334.047 328.311,331.894 329.696 M309.200 331.167 C 310.163 331.952,310.800 332.208,310.800 331.810 C 310.800 331.706,310.215 331.335,309.500 330.986 L 308.200 330.352 309.200 331.167 M269.000 332.400 L 268.200 332.744 269.000 332.766 C 269.440 332.778,270.070 332.613,270.400 332.400 C 271.195 331.886,270.196 331.886,269.000 332.400 M312.400 332.528 C 312.950 332.846,314.210 333.210,315.200 333.335 L 317.000 333.563 315.000 333.028 C 313.900 332.734,312.640 332.370,312.200 332.221 C 311.699 332.051,311.774 332.165,312.400 332.528 M262.600 333.200 C 260.700 333.461,260.680 333.475,262.200 333.498 C 263.080 333.510,264.790 333.384,266.000 333.217 C 268.166 332.917,268.172 332.913,266.400 332.919 C 265.410 332.923,263.700 333.049,262.600 333.200 M322.600 333.200 C 321.530 333.472,321.508 333.505,322.400 333.505 C 322.950 333.505,323.940 333.368,324.600 333.200 C 325.670 332.928,325.692 332.895,324.800 332.895 C 324.250 332.895,323.260 333.032,322.600 333.200 M318.100 333.887 C 318.705 333.978,319.695 333.978,320.300 333.887 C 320.905 333.795,320.410 333.720,319.200 333.720 C 317.990 333.720,317.495 333.795,318.100 333.887 " stroke="none" fill="#759b6a" fill-rule="evenodd"></path><path id="path3" d="M58.498 116.700 L 58.597 166.600 58.700 116.903 L 58.803 67.206 82.102 67.100 L 105.400 66.993 81.900 66.897 L 58.400 66.800 58.498 116.700 M106.100 67.476 C 106.485 67.576,107.115 67.576,107.500 67.476 C 107.885 67.375,107.570 67.293,106.800 67.293 C 106.030 67.293,105.715 67.375,106.100 67.476 M114.800 70.140 C 114.800 70.217,115.700 70.840,116.800 71.524 C 119.276 73.063,119.423 72.867,117.028 71.219 C 115.371 70.079,114.800 69.803,114.800 70.140 M121.000 74.800 C 122.083 75.900,123.060 76.800,123.170 76.800 C 123.280 76.800,122.483 75.900,121.400 74.800 C 120.317 73.700,119.340 72.800,119.230 72.800 C 119.120 72.800,119.917 73.700,121.000 74.800 M124.780 79.506 C 125.489 80.658,126.155 81.600,126.260 81.600 C 126.573 81.600,124.675 78.394,124.060 77.883 C 123.747 77.624,124.072 78.355,124.780 79.506 M75.067 83.467 C 74.555 83.979,74.759 107.799,75.280 108.320 C 75.811 108.851,95.692 108.985,98.564 108.477 C 99.425 108.325,94.565 108.200,87.764 108.200 L 75.400 108.200 75.400 95.700 C 75.400 88.825,75.385 83.200,75.367 83.200 C 75.348 83.200,75.213 83.320,75.067 83.467 M97.633 83.344 C 97.725 83.423,98.700 83.591,99.800 83.718 C 101.087 83.867,101.515 83.826,101.000 83.603 C 100.236 83.272,97.286 83.045,97.633 83.344 M127.222 84.200 C 127.216 84.420,127.471 85.320,127.788 86.200 C 128.105 87.080,128.373 87.506,128.382 87.146 C 128.392 86.786,128.137 85.886,127.816 85.146 C 127.494 84.406,127.227 83.980,127.222 84.200 M105.600 85.725 C 105.600 85.794,106.185 86.379,106.900 87.025 L 108.200 88.200 107.025 86.900 C 105.930 85.688,105.600 85.416,105.600 85.725 M108.644 89.600 C 109.511 91.388,109.778 91.667,109.407 90.400 C 109.246 89.850,108.856 89.130,108.540 88.800 C 108.123 88.365,108.152 88.584,108.644 89.600 M128.600 93.157 C 128.600 95.801,128.722 97.658,128.872 97.283 C 129.215 96.420,129.207 90.508,128.860 89.274 C 128.717 88.765,128.600 90.512,128.600 93.157 M109.646 98.919 C 109.621 99.535,109.249 100.764,108.821 101.651 C 108.391 102.540,108.272 103.072,108.555 102.837 C 109.266 102.247,110.126 99.495,109.889 98.566 C 109.750 98.022,109.679 98.124,109.646 98.919 M127.699 100.790 C 126.996 103.042,127.113 103.758,127.843 101.673 C 128.176 100.723,128.392 99.776,128.323 99.569 C 128.254 99.361,127.973 99.911,127.699 100.790 M141.787 100.492 C 141.681 100.771,141.641 115.760,141.699 133.800 L 141.805 166.600 141.902 133.500 L 142.000 100.400 150.000 100.400 L 158.000 100.400 158.000 104.951 C 158.000 108.338,158.142 109.620,158.553 109.961 C 159.106 110.420,159.920 109.387,159.409 108.876 C 159.294 108.761,159.200 108.877,159.200 109.133 C 159.200 109.390,159.026 109.600,158.813 109.600 C 158.591 109.600,158.377 107.586,158.313 104.900 L 158.200 100.200 150.091 100.092 C 143.821 100.008,141.937 100.099,141.787 100.492 M170.800 100.393 C 170.173 100.601,170.736 100.642,172.309 100.504 L 174.817 100.284 174.709 108.238 L 174.600 116.193 173.400 116.449 L 172.200 116.705 173.492 116.753 C 175.210 116.816,175.252 116.578,175.114 107.600 L 175.000 100.200 173.400 100.131 C 172.520 100.092,171.350 100.210,170.800 100.393 M167.200 101.400 C 165.922 102.130,166.196 102.134,168.200 101.412 C 169.080 101.095,169.440 100.834,169.000 100.832 C 168.560 100.830,167.750 101.086,167.200 101.400 M163.889 103.395 C 161.994 104.841,160.046 107.200,160.746 107.200 C 160.966 107.200,161.259 106.843,161.398 106.406 C 161.537 105.970,162.494 104.944,163.525 104.126 C 166.065 102.113,166.193 102.000,165.938 102.000 C 165.815 102.000,164.893 102.628,163.889 103.395 M121.816 111.119 C 120.284 112.814,119.550 113.750,120.185 113.200 C 121.915 111.700,125.206 107.943,124.723 108.019 C 124.655 108.030,123.347 109.425,121.816 111.119 M116.800 115.000 C 115.810 115.530,115.142 115.972,115.316 115.982 C 115.741 116.006,118.800 114.434,118.800 114.192 C 118.800 113.927,118.817 113.920,116.800 115.000 M114.000 116.326 C 114.000 116.759,116.643 118.005,117.514 117.982 C 117.891 117.973,117.482 117.709,116.605 117.397 C 115.727 117.084,114.947 116.642,114.871 116.414 C 114.708 115.925,114.000 115.853,114.000 116.326 M168.400 117.200 C 167.605 117.714,168.604 117.714,169.800 117.200 L 170.600 116.856 169.800 116.834 C 169.360 116.822,168.730 116.987,168.400 117.200 M161.414 121.900 C 160.647 122.945,160.015 123.977,160.010 124.193 C 160.004 124.409,160.485 123.869,161.078 122.993 C 161.671 122.117,162.391 121.162,162.678 120.871 C 163.220 120.322,163.341 120.000,163.004 120.000 C 162.896 120.000,162.180 120.855,161.414 121.900 M126.279 123.227 C 127.423 124.422,128.683 125.768,129.079 126.219 C 130.179 127.468,129.177 125.998,127.784 124.319 C 127.108 123.504,126.025 122.436,125.377 121.946 C 124.730 121.455,125.136 122.032,126.279 123.227 M74.982 126.104 C 74.875 126.381,74.836 132.276,74.894 139.204 L 75.000 151.800 88.000 151.809 L 101.000 151.817 88.089 151.703 L 75.179 151.589 75.289 138.594 C 75.350 131.447,75.349 125.600,75.287 125.600 C 75.226 125.600,75.088 125.827,74.982 126.104 M98.833 125.744 C 98.925 125.823,100.260 125.989,101.800 126.113 C 103.492 126.249,104.284 126.203,103.800 125.997 C 103.039 125.673,98.483 125.441,98.833 125.744 M105.233 126.544 C 105.325 126.623,105.940 126.808,106.600 126.956 C 107.476 127.152,107.638 127.115,107.200 126.818 C 106.660 126.453,104.832 126.198,105.233 126.544 M158.649 128.215 C 158.512 128.573,158.415 129.166,158.434 129.533 C 158.453 129.900,158.627 129.669,158.821 129.020 C 159.198 127.758,159.065 127.133,158.649 128.215 M111.600 129.800 C 112.346 130.570,113.047 131.200,113.157 131.200 C 113.267 131.200,112.746 130.570,112.000 129.800 C 111.254 129.030,110.553 128.400,110.443 128.400 C 110.333 128.400,110.854 129.030,111.600 129.800 M132.244 133.400 C 132.573 134.871,132.802 135.190,132.794 134.167 C 132.791 133.745,132.605 133.130,132.382 132.800 C 132.085 132.362,132.048 132.524,132.244 133.400 M158.183 149.600 C 158.183 158.950,158.236 162.775,158.300 158.100 C 158.364 153.425,158.364 145.775,158.300 141.100 C 158.236 136.425,158.183 140.250,158.183 149.600 M114.682 136.021 C 114.808 136.999,114.975 137.875,115.055 137.967 C 115.381 138.342,115.160 135.355,114.821 134.821 C 114.584 134.446,114.535 134.870,114.682 136.021 M132.902 139.800 C 132.909 143.798,132.936 143.963,133.205 141.600 C 133.368 140.170,133.364 138.190,133.197 137.200 C 132.970 135.852,132.896 136.505,132.902 139.800 M114.859 141.200 C 114.820 141.750,114.689 142.650,114.567 143.200 C 114.376 144.062,114.408 144.102,114.797 143.491 C 115.046 143.102,115.177 142.202,115.089 141.491 C 114.964 140.487,114.913 140.422,114.859 141.200 M113.599 145.603 C 113.319 146.279,112.349 147.477,111.445 148.265 C 110.540 149.053,110.160 149.511,110.600 149.283 C 112.118 148.497,114.795 145.062,114.286 144.553 C 114.188 144.455,113.879 144.927,113.599 145.603 M132.460 145.667 C 132.427 146.254,132.296 147.064,132.170 147.467 C 131.952 148.160,131.965 148.161,132.395 147.490 C 132.646 147.099,132.777 146.289,132.686 145.690 L 132.520 144.600 132.460 145.667 M131.532 149.200 C 131.406 149.750,131.178 150.560,131.026 151.000 C 130.874 151.440,131.042 151.295,131.399 150.677 C 131.757 150.059,131.985 149.249,131.905 148.877 C 131.802 148.394,131.695 148.487,131.532 149.200 M108.580 149.961 C 108.371 150.160,107.840 150.409,107.400 150.515 C 106.620 150.703,106.620 150.708,107.424 150.754 C 107.876 150.779,108.596 150.536,109.024 150.213 C 109.451 149.890,109.611 149.620,109.380 149.613 C 109.149 149.606,108.789 149.763,108.580 149.961 M104.200 151.200 L 102.600 151.486 104.000 151.537 C 104.770 151.565,105.670 151.413,106.000 151.200 C 106.655 150.777,106.562 150.777,104.200 151.200 M128.034 156.153 L 127.069 157.400 128.213 156.312 C 128.843 155.714,129.277 155.153,129.179 155.065 C 129.080 154.977,128.565 155.467,128.034 156.153 M124.200 159.860 C 122.995 160.936,122.905 161.085,123.836 160.463 C 124.941 159.724,126.332 158.376,125.949 158.415 C 125.867 158.423,125.080 159.073,124.200 159.860 M121.100 161.829 C 119.605 162.640,119.696 162.978,121.200 162.200 C 121.860 161.859,122.400 161.494,122.400 161.390 C 122.400 161.132,122.357 161.147,121.100 161.829 M110.100 165.476 C 110.485 165.576,111.115 165.576,111.500 165.476 C 111.885 165.375,111.570 165.293,110.800 165.293 C 110.030 165.293,109.715 165.375,110.100 165.476 M106.200 166.000 L 104.600 166.286 106.000 166.303 C 106.770 166.313,107.850 166.176,108.400 166.000 C 109.685 165.588,108.499 165.588,106.200 166.000 M216.998 283.400 L 217.000 333.400 236.000 333.502 C 246.450 333.558,256.890 333.468,259.200 333.302 C 261.510 333.136,253.006 333.065,240.302 333.144 L 217.203 333.289 217.099 283.344 L 216.995 233.400 216.998 283.400 M262.433 233.747 C 262.525 233.828,263.479 233.988,264.554 234.104 C 265.749 234.232,266.293 234.178,265.954 233.963 C 265.435 233.635,262.071 233.428,262.433 233.747 M268.800 234.891 C 269.146 235.220,273.600 237.164,273.600 236.986 C 273.600 236.750,270.811 235.366,269.600 235.002 C 269.050 234.836,268.690 234.786,268.800 234.891 M274.033 237.330 C 274.125 237.401,274.830 237.866,275.600 238.363 L 277.000 239.266 275.800 238.235 C 275.140 237.668,274.435 237.203,274.233 237.202 C 274.032 237.201,273.942 237.258,274.033 237.330 M277.200 239.314 C 277.200 239.454,278.108 240.417,279.217 241.455 C 280.327 242.493,281.797 244.210,282.485 245.271 C 283.172 246.331,283.816 247.118,283.915 247.018 C 284.126 246.807,282.343 244.326,280.569 242.362 C 278.973 240.595,277.200 238.991,277.200 239.314 M233.467 249.867 C 233.097 250.237,233.129 274.709,233.500 274.938 C 233.665 275.040,233.800 269.516,233.800 262.662 L 233.800 250.200 246.185 250.200 C 252.996 250.200,258.036 250.086,257.385 249.947 C 255.780 249.605,233.802 249.531,233.467 249.867 M285.622 251.000 C 285.616 251.220,285.871 252.120,286.188 253.000 C 286.505 253.880,286.773 254.306,286.782 253.946 C 286.792 253.586,286.537 252.686,286.216 251.946 C 285.894 251.206,285.627 250.780,285.622 251.000 M263.440 252.341 C 265.324 253.720,266.144 254.616,266.970 256.201 C 267.314 256.860,267.596 257.159,267.598 256.864 C 267.603 255.585,263.407 251.200,262.176 251.200 C 262.013 251.200,262.582 251.714,263.440 252.341 M287.000 260.000 C 287.000 262.725,287.114 264.425,287.253 263.777 C 287.392 263.130,287.505 261.430,287.505 260.000 C 287.505 258.570,287.392 256.870,287.253 256.223 C 287.114 255.575,287.000 257.275,287.000 260.000 M267.882 259.221 C 268.008 260.199,268.175 261.075,268.255 261.167 C 268.581 261.542,268.360 258.555,268.021 258.021 C 267.784 257.646,267.735 258.070,267.882 259.221 M268.060 265.281 C 267.990 266.539,267.348 268.145,266.292 269.700 C 265.882 270.305,265.709 270.800,265.908 270.800 C 266.565 270.800,268.456 266.403,268.284 265.276 L 268.120 264.200 268.060 265.281 M286.301 266.200 C 285.606 269.498,285.595 269.736,286.210 268.073 C 286.561 267.123,286.782 266.043,286.701 265.673 C 286.610 265.256,286.458 265.456,286.301 266.200 M324.117 265.497 C 325.611 265.574,327.951 265.574,329.317 265.496 C 330.682 265.418,329.460 265.355,326.600 265.355 C 323.740 265.356,322.622 265.420,324.117 265.497 M318.200 266.000 C 317.696 266.217,317.622 266.344,318.000 266.344 C 318.330 266.344,318.960 266.189,319.400 266.000 C 319.904 265.783,319.978 265.656,319.600 265.656 C 319.270 265.656,318.640 265.811,318.200 266.000 M334.200 266.000 C 335.396 266.514,336.395 266.514,335.600 266.000 C 335.270 265.787,334.640 265.622,334.200 265.634 L 333.400 265.656 334.200 266.000 M314.900 267.034 C 314.185 267.346,313.600 267.694,313.600 267.807 C 313.600 268.015,316.406 266.927,316.746 266.587 C 317.086 266.247,316.220 266.457,314.900 267.034 M337.200 266.685 C 337.530 266.807,338.506 267.242,339.369 267.651 C 340.233 268.060,341.005 268.329,341.085 268.249 C 341.297 268.036,337.700 266.394,337.104 266.432 C 336.791 266.451,336.827 266.547,337.200 266.685 M284.778 271.058 C 284.557 271.639,284.264 272.297,284.126 272.519 C 283.989 272.742,284.066 272.806,284.299 272.663 C 284.739 272.390,285.700 270.000,285.369 270.000 C 285.265 270.000,284.999 270.476,284.778 271.058 M343.600 270.122 C 343.600 270.215,344.160 270.901,344.845 271.646 L 346.090 273.000 345.226 271.712 C 344.432 270.528,343.600 269.714,343.600 270.122 M307.113 273.100 C 306.432 273.881,305.483 275.600,305.733 275.600 C 305.821 275.600,306.370 274.880,306.953 274.000 C 308.068 272.314,308.137 271.926,307.113 273.100 M261.600 273.600 C 260.830 274.022,260.344 274.374,260.520 274.383 C 260.944 274.405,263.200 273.232,263.200 272.990 C 263.200 272.728,263.177 272.737,261.600 273.600 M283.161 274.100 C 282.317 275.727,279.907 278.462,278.279 279.642 C 277.400 280.279,276.904 280.800,277.177 280.800 C 277.889 280.800,282.553 276.039,283.349 274.498 C 283.719 273.784,283.932 273.200,283.824 273.200 C 283.716 273.200,283.418 273.605,283.161 274.100 M256.800 274.800 C 255.443 275.086,255.437 275.095,256.600 275.107 C 257.260 275.115,258.250 274.976,258.800 274.800 C 260.112 274.380,258.796 274.380,256.800 274.800 M304.865 277.017 C 304.609 277.578,304.407 278.254,304.416 278.519 C 304.424 278.783,304.697 278.388,305.022 277.639 C 305.705 276.065,305.561 275.490,304.865 277.017 M347.606 277.033 C 347.609 277.455,347.795 278.070,348.018 278.400 C 348.315 278.838,348.352 278.676,348.156 277.800 C 347.827 276.329,347.598 276.010,347.606 277.033 M324.291 277.489 C 325.001 277.577,326.261 277.579,327.091 277.492 C 327.921 277.405,327.340 277.333,325.800 277.331 C 324.260 277.329,323.581 277.400,324.291 277.489 M331.800 278.466 C 332.240 278.708,333.058 279.288,333.619 279.754 C 334.179 280.219,334.046 280.015,333.324 279.300 C 332.602 278.585,331.784 278.005,331.506 278.012 C 331.228 278.019,331.360 278.223,331.800 278.466 M317.775 279.700 L 316.600 281.000 317.998 279.800 C 318.767 279.140,319.472 278.555,319.565 278.500 C 319.657 278.445,319.557 278.400,319.342 278.400 C 319.126 278.400,318.421 278.985,317.775 279.700 M348.501 280.600 C 348.505 281.480,348.587 281.793,348.683 281.295 C 348.779 280.798,348.775 280.078,348.675 279.695 C 348.575 279.313,348.496 279.720,348.501 280.600 M303.856 280.484 C 303.721 280.988,303.627 281.760,303.646 282.200 C 303.665 282.640,303.845 282.298,304.046 281.440 C 304.436 279.778,304.270 278.940,303.856 280.484 M272.792 283.010 C 272.147 283.787,272.261 283.880,274.200 284.160 C 275.736 284.381,275.748 284.375,274.515 283.988 C 273.627 283.709,273.301 283.402,273.458 282.993 C 273.752 282.227,273.435 282.235,272.792 283.010 M348.948 286.800 C 348.948 289.110,349.014 290.055,349.095 288.900 C 349.176 287.745,349.176 285.855,349.095 284.700 C 349.014 283.545,348.948 284.490,348.948 286.800 M315.660 284.875 C 315.605 286.223,315.489 286.363,314.300 286.511 L 313.000 286.672 314.313 286.736 C 315.780 286.808,316.152 286.287,315.890 284.534 C 315.744 283.564,315.711 283.613,315.660 284.875 M335.712 285.400 C 335.796 287.318,335.743 287.428,334.400 288.099 C 333.630 288.484,333.291 288.799,333.646 288.799 C 335.650 288.801,336.925 286.293,335.984 284.200 C 335.722 283.617,335.648 283.942,335.712 285.400 M304.033 285.748 C 304.125 285.829,306.180 285.992,308.600 286.108 C 311.598 286.253,312.299 286.218,310.800 286.000 C 308.515 285.667,303.742 285.489,304.033 285.748 M281.200 286.946 C 281.200 287.056,281.740 287.530,282.400 288.000 C 283.060 288.470,283.600 288.764,283.600 288.654 C 283.600 288.544,283.060 288.070,282.400 287.600 C 281.740 287.130,281.200 286.836,281.200 286.946 M285.615 290.671 C 285.623 290.852,286.273 291.720,287.060 292.600 C 288.445 294.151,288.461 294.157,287.558 292.800 C 286.469 291.164,285.594 290.205,285.615 290.671 M326.000 290.800 C 325.467 291.145,325.467 291.188,326.000 291.188 C 326.330 291.188,326.870 291.013,327.200 290.800 C 327.733 290.455,327.733 290.412,327.200 290.412 C 326.870 290.412,326.330 290.587,326.000 290.800 M320.200 292.240 C 316.952 293.368,318.183 293.250,322.000 292.067 C 323.430 291.624,324.240 291.262,323.800 291.264 C 323.360 291.266,321.740 291.705,320.200 292.240 M233.643 292.548 C 233.320 292.938,233.219 296.771,233.294 305.848 L 233.400 318.600 246.523 318.705 C 253.741 318.764,260.178 318.674,260.829 318.505 C 261.480 318.337,255.617 318.256,247.800 318.323 L 233.589 318.447 233.694 305.523 L 233.800 292.600 247.600 292.600 C 255.190 292.600,260.500 292.481,259.400 292.335 C 255.235 291.783,234.133 291.958,233.643 292.548 M349.370 301.000 C 349.371 305.840,349.429 307.765,349.499 305.278 C 349.569 302.791,349.569 298.831,349.498 296.478 C 349.428 294.125,349.370 296.160,349.370 301.000 M263.400 293.200 C 264.501 293.673,264.892 293.673,264.600 293.200 C 264.464 292.980,263.958 292.813,263.476 292.828 C 262.631 292.855,262.629 292.869,263.400 293.200 M315.800 293.600 C 315.029 293.931,315.031 293.945,315.876 293.972 C 316.358 293.987,316.864 293.820,317.000 293.600 C 317.292 293.127,316.901 293.127,315.800 293.600 M267.596 294.677 C 268.144 295.075,269.314 296.030,270.196 296.800 C 271.078 297.570,271.530 297.841,271.200 297.402 C 270.229 296.110,269.885 295.818,268.200 294.862 C 267.320 294.362,267.048 294.279,267.596 294.677 M309.097 296.366 C 307.498 297.391,307.203 297.806,308.600 297.066 C 310.276 296.177,311.071 295.608,310.600 295.635 C 310.380 295.648,309.704 295.977,309.097 296.366 M289.214 296.054 C 289.206 296.194,289.463 296.914,289.784 297.654 C 290.106 298.394,290.369 298.730,290.370 298.400 C 290.372 297.824,289.243 295.534,289.214 296.054 M304.777 299.910 L 302.600 302.200 304.792 300.200 C 305.997 299.100,307.062 298.155,307.158 298.100 C 307.255 298.045,307.248 297.914,307.143 297.810 C 307.039 297.705,305.974 298.650,304.777 299.910 M271.600 298.478 C 271.600 298.605,271.869 299.224,272.198 299.854 C 272.526 300.484,272.790 300.730,272.785 300.400 C 272.779 300.070,272.510 299.451,272.187 299.024 C 271.864 298.596,271.600 298.351,271.600 298.478 M290.658 300.400 C 290.975 302.125,291.202 302.451,291.194 301.167 C 291.191 300.635,291.011 299.930,290.794 299.600 C 290.518 299.178,290.477 299.415,290.658 300.400 M273.000 305.777 C 273.000 308.278,273.132 310.116,273.294 309.862 C 273.660 309.287,273.642 302.847,273.272 301.915 C 273.122 301.538,273.000 303.276,273.000 305.777 M333.549 302.700 C 334.265 303.298,334.405 303.925,334.511 307.000 L 334.635 310.600 334.718 306.929 C 334.800 303.269,334.390 302.000,333.127 302.000 C 332.898 302.000,333.088 302.315,333.549 302.700 M329.800 303.431 C 327.688 304.693,328.328 304.671,330.715 303.400 C 331.748 302.850,332.325 302.417,331.997 302.438 C 331.669 302.458,330.680 302.905,329.800 303.431 M291.342 306.200 C 291.341 308.180,291.408 309.040,291.492 308.112 C 291.576 307.184,291.577 305.564,291.495 304.512 C 291.412 303.460,291.343 304.220,291.342 306.200 M300.831 305.424 C 300.352 306.443,300.044 307.485,300.148 307.739 C 300.275 308.049,300.347 308.030,300.368 307.681 C 300.386 307.395,300.759 306.419,301.197 305.511 C 301.636 304.604,301.929 303.795,301.849 303.715 C 301.768 303.635,301.310 304.404,300.831 305.424 M320.551 306.996 C 318.903 307.984,317.600 309.522,317.600 310.480 C 317.600 310.759,317.936 310.360,318.346 309.594 C 318.836 308.678,319.811 307.823,321.192 307.100 C 322.346 306.495,323.046 306.002,322.746 306.004 C 322.446 306.006,321.458 306.452,320.551 306.996 M299.452 309.700 C 299.130 310.901,299.185 316.422,299.528 317.285 C 299.678 317.662,299.800 315.907,299.800 313.385 C 299.800 308.379,299.802 308.396,299.452 309.700 M272.076 311.974 C 271.788 312.623,270.889 313.816,270.077 314.625 C 268.946 315.751,268.848 315.939,269.660 315.428 C 270.817 314.699,272.924 311.771,272.723 311.169 C 272.654 310.963,272.363 311.325,272.076 311.974 M290.893 312.000 C 290.893 312.770,290.975 313.085,291.076 312.700 C 291.176 312.315,291.176 311.685,291.076 311.300 C 290.975 310.915,290.893 311.230,290.893 312.000 M333.850 312.050 C 333.709 312.753,333.669 313.402,333.759 313.492 C 333.850 313.583,334.048 313.091,334.200 312.400 C 334.352 311.709,334.393 311.059,334.291 310.958 C 334.189 310.856,333.991 311.347,333.850 312.050 M331.573 316.034 C 329.540 318.222,329.522 318.710,331.548 316.729 C 332.634 315.667,333.913 313.915,333.514 314.034 C 333.451 314.053,332.578 314.953,331.573 316.034 M289.932 315.600 C 289.806 316.150,289.578 316.960,289.426 317.400 C 289.274 317.840,289.442 317.695,289.799 317.077 C 290.157 316.459,290.385 315.649,290.305 315.277 C 290.202 314.794,290.095 314.887,289.932 315.600 M349.671 319.200 C 349.676 321.730,349.811 324.250,349.970 324.800 C 350.130 325.350,350.189 323.460,350.100 320.600 C 349.895 313.983,349.661 313.217,349.671 319.200 M265.600 317.042 C 264.170 317.553,263.283 317.978,263.629 317.986 C 264.526 318.006,267.956 316.794,268.223 316.363 C 268.346 316.163,268.392 316.025,268.324 316.056 C 268.256 316.087,267.030 316.531,265.600 317.042 M287.909 320.344 C 287.322 321.390,286.024 323.122,285.026 324.194 C 284.027 325.266,283.272 326.206,283.348 326.281 C 283.424 326.357,284.323 325.499,285.347 324.375 C 287.187 322.352,289.446 318.913,289.137 318.604 C 289.049 318.516,288.497 319.299,287.909 320.344 M322.262 319.300 C 322.502 319.689,326.057 319.679,326.674 319.287 C 326.934 319.121,326.007 318.989,324.612 318.993 C 323.218 318.997,322.161 319.135,322.262 319.300 M300.805 321.422 C 300.799 321.958,303.096 325.600,303.440 325.600 C 303.582 325.600,303.511 325.374,303.282 325.098 C 303.053 324.823,302.403 323.788,301.838 322.798 C 301.272 321.809,300.807 321.190,300.805 321.422 M304.600 327.148 C 305.260 327.877,306.340 328.846,307.000 329.301 C 308.418 330.280,308.098 329.934,305.400 327.574 C 303.922 326.281,303.713 326.170,304.600 327.148 M335.811 326.386 C 335.111 326.641,335.144 326.696,336.111 326.881 C 336.710 326.995,337.200 326.945,337.200 326.768 C 337.200 326.236,336.646 326.083,335.811 326.386 M281.211 327.420 C 280.447 327.959,279.997 328.399,280.211 328.398 C 280.425 328.397,281.140 327.953,281.800 327.412 C 283.341 326.149,283.005 326.153,281.211 327.420 M332.905 328.504 C 331.973 329.186,331.286 329.819,331.378 329.911 C 331.470 330.003,332.393 329.431,333.430 328.639 C 335.727 326.886,335.276 326.770,332.905 328.504 M350.434 327.800 C 350.422 328.240,350.587 328.870,350.800 329.200 C 351.314 329.995,351.314 328.996,350.800 327.800 L 350.456 327.000 350.434 327.800 M278.000 329.200 C 277.230 329.622,276.744 329.974,276.920 329.983 C 277.344 330.005,279.600 328.832,279.600 328.590 C 279.600 328.328,279.577 328.337,278.000 329.200 M337.232 328.720 C 337.196 329.298,338.307 331.600,338.621 331.600 C 338.731 331.600,338.571 331.105,338.265 330.500 C 337.960 329.895,337.609 329.130,337.486 328.800 C 337.336 328.397,337.253 328.371,337.232 328.720 M308.400 330.192 C 308.400 330.483,311.495 332.000,312.084 331.998 C 312.368 331.997,311.714 331.547,310.632 330.998 C 308.551 329.942,308.400 329.888,308.400 330.192 M272.400 331.218 C 271.962 331.515,272.124 331.552,273.000 331.356 C 274.471 331.027,274.790 330.798,273.767 330.806 C 273.345 330.809,272.730 330.995,272.400 331.218 M327.800 331.414 C 327.140 331.717,326.870 331.966,327.200 331.968 C 327.530 331.970,328.250 331.714,328.800 331.400 C 330.065 330.677,329.389 330.687,327.800 331.414 M266.000 332.400 L 264.200 332.680 265.800 332.700 C 266.680 332.711,267.850 332.576,268.400 332.400 C 269.663 331.995,268.602 331.995,266.000 332.400 M313.200 332.382 C 313.530 332.605,314.145 332.791,314.567 332.794 C 315.590 332.802,315.271 332.573,313.800 332.244 C 312.924 332.048,312.762 332.085,313.200 332.382 M317.461 333.230 C 318.374 333.403,319.994 333.401,321.061 333.226 C 322.750 332.948,322.537 332.908,319.400 332.911 C 316.501 332.914,316.123 332.976,317.461 333.230 " stroke="none" fill="#9cb894" fill-rule="evenodd"></path><path id="path4" d="M69.900 66.700 C 76.115 66.762,86.285 66.762,92.500 66.700 C 98.715 66.638,93.630 66.587,81.200 66.587 C 68.770 66.587,63.685 66.638,69.900 66.700 M81.124 83.499 C 84.273 83.567,89.313 83.567,92.324 83.499 C 95.336 83.431,92.760 83.376,86.600 83.376 C 80.440 83.376,77.976 83.432,81.124 83.499 M80.900 108.299 C 83.925 108.367,88.875 108.367,91.900 108.299 C 94.925 108.231,92.450 108.175,86.400 108.175 C 80.350 108.175,77.875 108.231,80.900 108.299 M81.300 125.899 C 84.545 125.966,89.855 125.966,93.100 125.899 C 96.345 125.832,93.690 125.777,87.200 125.777 C 80.710 125.777,78.055 125.832,81.300 125.899 M114.893 139.200 C 114.893 139.970,114.975 140.285,115.076 139.900 C 115.176 139.515,115.176 138.885,115.076 138.500 C 114.975 138.115,114.893 138.430,114.893 139.200 M100.900 151.476 C 101.285 151.576,101.915 151.576,102.300 151.476 C 102.685 151.375,102.370 151.293,101.600 151.293 C 100.830 151.293,100.515 151.375,100.900 151.476 M69.272 166.700 C 75.141 166.762,84.861 166.762,90.872 166.700 C 96.882 166.638,92.080 166.587,80.200 166.586 C 68.320 166.586,63.402 166.637,69.272 166.700 M145.900 166.698 C 148.155 166.770,151.845 166.770,154.100 166.698 C 156.355 166.627,154.510 166.569,150.000 166.569 C 145.490 166.569,143.645 166.627,145.900 166.698 M228.100 233.500 C 234.205 233.562,244.195 233.562,250.300 233.500 C 256.405 233.438,251.410 233.387,239.200 233.387 C 226.990 233.387,221.995 233.438,228.100 233.500 M239.524 250.299 C 242.673 250.367,247.713 250.367,250.724 250.299 C 253.736 250.231,251.160 250.176,245.000 250.176 C 238.840 250.176,236.376 250.232,239.524 250.299 M268.109 262.800 C 268.109 263.790,268.187 264.195,268.282 263.700 C 268.378 263.205,268.378 262.395,268.282 261.900 C 268.187 261.405,268.109 261.810,268.109 262.800 M324.500 265.091 C 325.325 265.178,326.675 265.178,327.500 265.091 C 328.325 265.005,327.650 264.934,326.000 264.934 C 324.350 264.934,323.675 265.005,324.500 265.091 M239.300 275.099 C 242.325 275.167,247.275 275.167,250.300 275.099 C 253.325 275.031,250.850 274.975,244.800 274.975 C 238.750 274.975,236.275 275.031,239.300 275.099 M349.328 290.000 C 349.328 291.430,349.401 292.015,349.489 291.300 C 349.578 290.585,349.578 289.415,349.489 288.700 C 349.401 287.985,349.328 288.570,349.328 290.000 M239.925 292.699 C 243.293 292.766,248.693 292.766,251.925 292.699 C 255.156 292.632,252.400 292.577,245.800 292.577 C 239.200 292.577,236.556 292.632,239.925 292.699 M334.146 307.000 C 334.147 309.200,334.214 310.049,334.295 308.887 C 334.376 307.724,334.376 305.924,334.293 304.887 C 334.211 303.849,334.145 304.800,334.146 307.000 M291.701 305.800 C 291.705 306.680,291.787 306.993,291.883 306.495 C 291.979 305.998,291.975 305.278,291.875 304.895 C 291.775 304.513,291.696 304.920,291.701 305.800 M349.724 312.600 C 349.726 313.920,349.801 314.412,349.890 313.693 C 349.979 312.974,349.977 311.894,349.886 311.293 C 349.795 310.692,349.722 311.280,349.724 312.600 M350.093 322.400 C 350.093 323.170,350.175 323.485,350.276 323.100 C 350.376 322.715,350.376 322.085,350.276 321.700 C 350.175 321.315,350.093 321.630,350.093 322.400 M351.200 331.152 C 351.200 331.518,349.580 331.608,344.637 331.519 C 341.028 331.453,338.159 331.535,338.261 331.700 C 338.562 332.185,351.113 332.064,351.416 331.573 C 351.561 331.339,351.572 331.039,351.440 330.907 C 351.308 330.775,351.200 330.885,351.200 331.152 M258.300 333.482 C 258.795 333.578,259.605 333.578,260.100 333.482 C 260.595 333.387,260.190 333.309,259.200 333.309 C 258.210 333.309,257.805 333.387,258.300 333.482 " stroke="none" fill="#94b48c" fill-rule="evenodd"></path></g></svg>