<?xml version="1.0" standalone="no"?>
<!DOCTYPE svg PUBLIC "-//W3C//DTD SVG 20010904//EN"
 "http://www.w3.org/TR/2001/REC-SVG-20010904/DTD/svg10.dtd">
<svg version="1.0" xmlns="http://www.w3.org/2000/svg"
 width="512.000000pt" height="512.000000pt" viewBox="0 0 512.000000 512.000000"
 preserveAspectRatio="xMidYMid meet">
<metadata>
Created by potrace 1.16, written by Peter Selinger 2001-2019
</metadata>
<g transform="translate(0.000000,512.000000) scale(0.100000,-0.100000)"
fill="#000000" stroke="none">
<path d="M187 4932 c-147 -147 -188 -194 -185 -211 2 -18 40 15 213 189 175
175 206 210 185 210 -19 0 -69 -44 -213 -188z"/>
<path d="M287 4832 c-227 -227 -288 -294 -285 -311 2 -17 59 35 313 289 255
255 305 310 285 310 -20 0 -89 -64 -313 -288z"/>
<path d="M387 4732 c-307 -307 -388 -393 -385 -411 2 -17 79 55 413 389 335
335 405 410 385 410 -20 0 -109 -84 -413 -388z"/>
<path d="M487 4632 c-388 -388 -488 -493 -485 -511 2 -17 99 74 513 489 415
415 505 510 485 510 -20 0 -129 -104 -513 -488z"/>
<path d="M587 4532 c-468 -468 -588 -593 -585 -611 2 -17 118 94 613 589 495
495 605 610 585 610 -20 0 -149 -124 -613 -588z"/>
<path d="M687 4432 c-548 -548 -688 -693 -685 -711 2 -17 138 114 713 689 575
575 705 710 685 710 -20 0 -169 -144 -713 -688z"/>
<path d="M787 4332 c-629 -629 -788 -793 -785 -811 2 -17 158 133 813 789 655
655 805 810 785 810 -20 0 -189 -164 -813 -788z"/>
<path d="M887 4232 c-709 -709 -888 -893 -885 -911 2 -17 177 153 913 889 735
735 905 910 885 910 -20 0 -209 -184 -913 -888z"/>
<path d="M987 4132 c-789 -789 -988 -993 -985 -1011 2 -17 197 173 1013 989
815 815 1005 1010 985 1010 -20 0 -229 -204 -1013 -988z"/>
<path d="M2091 5036 l-84 -85 -62 6 c-81 7 -90 -2 -139 -139 l-37 -104 -885
-885 c-700 -700 -884 -889 -884 -909 0 -20 99 74 530 505 323 322 527 519 520
502 -5 -16 -10 -54 -10 -85 l0 -57 -520 -520 c-409 -409 -520 -525 -520 -545
0 -20 98 73 526 500 309 309 528 520 531 512 3 -7 16 -26 31 -43 l25 -31 -556
-556 c-438 -438 -557 -562 -557 -582 0 -20 108 83 568 543 l568 568 57 -19 56
-18 -625 -625 c-493 -492 -624 -629 -624 -649 0 -20 124 99 653 628 l652 652
75 0 75 0 -728 -728 c-574 -574 -727 -732 -727 -752 0 -20 122 97 641 615 353
352 629 621 614 598 -29 -45 -55 -122 -55 -162 0 -21 -115 -141 -600 -626
-473 -473 -600 -605 -600 -625 0 -20 113 88 598 573 l597 597 12 -62 12 -63
-609 -610 c-481 -481 -610 -615 -610 -635 0 -20 118 93 619 594 l618 618 31
-44 31 -45 -650 -649 c-513 -512 -649 -654 -649 -674 0 -20 126 101 663 637
l662 662 44 -31 43 -31 -706 -706 c-557 -557 -706 -711 -706 -731 0 -20 139
114 722 697 l723 723 62 -13 62 -13 -784 -784 c-621 -621 -785 -790 -785 -810
0 -20 156 130 813 786 780 780 814 812 854 817 40 5 42 4 49 -25 6 -30 -21
-58 -855 -892 -681 -681 -861 -866 -861 -886 0 -20 168 143 868 843 l868 868
24 -51 24 -51 -892 -892 c-706 -706 -892 -897 -892 -917 0 -20 174 149 902
877 l903 902 28 -40 c15 -21 27 -43 27 -47 0 -4 -418 -426 -930 -937 -737
-737 -930 -935 -930 -955 0 -20 182 157 944 919 l943 943 36 -38 36 -39 -302
-300 c-244 -243 -314 -307 -367 -335 -92 -50 -234 -193 -294 -295 -41 -71
-100 -134 -521 -555 -373 -373 -475 -480 -475 -500 0 -20 85 60 458 433 l459
459 -22 -97 -21 -96 -437 -437 c-342 -342 -437 -442 -437 -462 0 -20 82 57
440 415 l440 440 0 -75 0 -75 -412 -412 c-336 -336 -408 -413 -388 -413 19 0
110 85 412 387 l388 388 0 -75 0 -75 -312 -312 c-256 -256 -308 -313 -288
-313 19 0 90 65 312 287 l288 288 0 -75 0 -75 -212 -212 c-176 -176 -209 -213
-188 -213 19 0 70 45 212 187 l188 188 0 -75 0 -75 -112 -112 c-96 -96 -109
-113 -88 -113 18 0 50 26 116 91 81 81 94 90 112 80 11 -6 40 -11 64 -11 l43
0 -80 -80 c-70 -71 -77 -80 -55 -80 18 0 48 23 105 80 l80 80 75 0 75 0 -80
-80 c-70 -71 -77 -80 -55 -80 18 0 48 23 105 80 l80 80 75 0 75 0 -80 -80
c-70 -71 -77 -80 -55 -80 18 0 48 23 105 80 l80 80 75 0 75 0 -80 -80 c-70
-71 -77 -80 -55 -80 18 0 48 23 105 80 l80 80 75 0 75 0 -80 -80 c-70 -71 -77
-80 -55 -80 18 0 48 23 105 80 l80 80 75 0 75 0 -80 -80 c-70 -71 -77 -80 -55
-80 18 0 48 23 105 80 l80 80 75 0 75 0 -80 -80 c-70 -71 -77 -80 -55 -80 18
0 48 23 105 80 l80 80 75 0 75 0 -80 -80 c-70 -71 -77 -80 -55 -80 18 0 48 23
105 80 l80 80 75 0 75 0 -80 -80 c-70 -71 -77 -80 -55 -80 18 0 48 23 105 80
l80 80 75 0 75 0 -80 -80 c-70 -71 -77 -80 -55 -80 18 0 48 23 105 80 l80 80
75 0 75 0 -80 -80 c-70 -71 -77 -80 -55 -80 18 0 48 23 105 80 l80 80 75 0 75
0 -80 -80 c-70 -71 -77 -80 -55 -80 18 0 48 23 105 80 l80 80 75 0 75 0 -80
-80 c-70 -71 -77 -80 -55 -80 18 0 48 23 105 80 l80 80 75 0 75 0 -80 -80
c-70 -71 -77 -80 -55 -80 18 0 48 23 105 80 l80 80 75 0 75 0 -80 -80 c-70
-71 -77 -80 -55 -80 18 0 48 23 105 80 l80 80 75 0 75 0 -80 -80 c-70 -71 -77
-80 -55 -80 18 0 48 23 105 80 l80 80 67 0 c93 0 108 15 108 108 l0 67 440
440 c345 345 440 445 440 465 0 20 -81 -56 -440 -415 l-440 -440 0 75 0 75
440 440 c345 345 440 445 440 465 0 20 -81 -56 -440 -415 l-440 -440 0 75 0
75 440 440 c345 345 440 445 440 465 0 20 -81 -56 -440 -415 l-440 -440 0 75
0 75 440 440 c345 345 440 445 440 465 0 20 -81 -56 -439 -414 l-438 -438 -8
67 -7 68 446 446 c349 349 446 451 446 471 0 20 -85 -60 -452 -427 l-453 -452
-18 56 -18 57 470 470 c369 369 471 476 471 496 0 20 -90 -65 -478 -453 l-479
-479 -28 47 -27 48 506 506 c397 397 506 511 506 531 0 20 -97 -72 -515 -490
l-515 -515 -35 40 -34 40 550 550 c432 432 549 555 549 575 0 20 -107 -82
-563 -538 l-563 -562 -37 38 -37 37 600 600 c473 473 600 605 600 625 0 20
-116 -91 -613 -588 -336 -336 -616 -612 -620 -612 -4 0 -26 12 -48 27 l-40 27
660 660 c521 521 661 666 661 686 0 20 -130 -105 -678 -653 l-678 -678 -53 22
-53 22 731 731 c577 577 731 736 731 756 0 20 -144 -119 -752 -726 l-753 -751
-59 15 -58 15 811 811 c641 641 811 816 811 836 0 20 -160 -135 -832 -806
l-833 -831 -59 15 -58 15 891 891 c705 705 891 896 891 916 0 20 -176 -151
-912 -886 l-913 -911 -59 15 -58 15 971 971 c769 769 971 976 971 996 0 20
-192 -167 -992 -966 l-993 -991 -45 11 c-25 7 -46 18 -48 26 -1 9 459 477
1038 1055 825 825 1040 1045 1040 1065 0 20 -201 -176 -1040 -1015 l-1040
-1040 0 75 0 75 298 296 c251 250 306 300 357 324 78 37 154 114 193 195 28
59 88 122 632 665 473 473 600 605 600 625 0 20 -113 -88 -600 -575 l-600
-600 0 75 0 75 600 600 c473 473 600 605 600 625 0 20 -115 -90 -608 -582
l-607 -607 -24 51 -24 50 632 632 c497 497 631 636 631 656 0 20 -123 -97
-642 -617 l-643 -642 -39 36 -38 35 73 74 c67 67 77 74 114 74 109 1 215 108
215 217 0 37 16 54 480 518 377 377 480 485 480 505 0 20 -89 -64 -480 -455
-263 -263 -481 -477 -482 -475 -2 3 -13 25 -26 50 l-23 44 506 506 c396 397
505 510 505 530 0 20 -98 -73 -518 -493 l-518 -518 -44 23 c-25 13 -47 24 -50
26 -2 1 230 237 515 522 423 423 515 520 495 520 -20 0 -136 -111 -545 -520
l-520 -520 -75 0 -75 0 520 520 c423 423 515 520 495 520 -20 0 -136 -111
-545 -520 l-520 -520 -75 0 -75 0 520 520 c422 422 515 520 495 520 -20 0
-133 -108 -527 -502 -494 -494 -502 -501 -513 -475 -5 15 -15 39 -20 54 -11
26 2 40 437 475 365 365 443 448 423 448 -20 0 -117 -92 -450 -425 -234 -234
-428 -425 -432 -425 -3 0 -14 23 -23 51 l-17 51 373 374 c305 305 369 374 349
374 -19 0 -104 -79 -381 -356 l-356 -356 -20 54 -20 53 301 303 c247 248 296
302 276 302 -19 0 -89 -64 -307 -282 -279 -278 -282 -282 -293 -255 -5 15 -15
39 -20 54 -11 26 -3 35 217 255 189 189 224 228 203 228 -19 0 -73 -48 -230
-205 -113 -113 -208 -205 -212 -205 -3 0 -14 23 -23 51 l-17 51 153 154 c130
130 150 154 129 154 -19 0 -59 -34 -160 -135 l-135 -135 -23 52 -23 52 83 83
c73 73 80 83 58 83 -18 0 -48 -23 -105 -80 -57 -58 -87 -80 -105 -80 -14 0
-50 -7 -80 -15 -30 -8 -59 -15 -65 -15 -5 0 33 43 85 95 82 82 91 95 70 95
-18 0 -53 -29 -131 -106 l-106 -105 -94 -24 c-52 -14 -96 -25 -99 -25 -3 0 54
59 125 130 110 110 126 130 105 130 -18 0 -61 -36 -165 -139 -134 -134 -142
-140 -201 -155 -67 -17 -104 -20 -104 -9 0 4 66 74 147 155 124 124 144 148
123 148 -19 0 -62 -37 -171 -146 l-146 -146 -57 13 c-31 7 -56 15 -56 18 0 3
57 63 127 133 108 108 124 128 103 128 -18 0 -58 -33 -151 -126 l-126 -126
-57 13 c-31 7 -56 15 -56 18 0 3 48 54 107 113 92 92 104 108 83 108 -18 0
-53 -29 -131 -106 l-106 -106 -57 13 c-31 7 -56 15 -56 18 0 3 39 45 87 93 77
77 85 88 63 88 -19 0 -49 -23 -109 -84z m1066 -290 l10 -34 -156 -156 -156
-156 -75 0 -75 0 179 179 c171 172 193 189 257 200 3 1 10 -14 16 -33z m-1141
-185 c-91 -91 -168 -163 -171 -160 -3 3 11 50 30 105 34 92 41 104 111 175
l76 76 60 -15 60 -15 -166 -166z m809 9 l-170 -170 -75 0 -75 0 146 146 145
145 90 24 c49 13 93 24 99 24 5 1 -67 -75 -160 -169z m-626 -26 l-144 -144
-75 0 -75 0 159 159 158 158 60 -15 60 -15 -143 -143z m180 -20 l-124 -124
-75 0 -75 0 139 139 138 138 60 -15 60 -15 -123 -123z m211 11 l-135 -135 -75
0 -75 0 120 120 c89 89 126 120 145 120 14 0 48 7 75 14 28 8 57 15 65 15 8 1
-46 -60 -120 -134z m614 84 l18 -52 -83 -83 -84 -84 -75 0 -75 0 135 135 c74
74 137 135 140 135 3 0 14 -23 24 -51z m-1509 -105 l-42 -115 -159 -160 -159
-159 -57 0 c-31 0 -69 -5 -85 -10 -18 -7 77 94 257 275 157 157 285 285 286
285 1 0 -18 -52 -41 -116z m-117 -322 l-41 -112 -76 0 -76 0 115 115 c63 63
115 113 117 112 1 -2 -16 -53 -39 -115z m437 -32 l-80 -80 -75 0 -75 0 80 80
80 80 75 0 75 0 -80 -80z m200 0 l-80 -80 -75 0 -75 0 80 80 80 80 75 0 75 0
-80 -80z m200 0 l-80 -80 -75 0 -75 0 80 80 80 80 75 0 75 0 -80 -80z m200 0
l-80 -80 -75 0 -75 0 80 80 80 80 75 0 75 0 -80 -80z m200 0 l-80 -80 -75 0
-75 0 80 80 80 80 75 0 75 0 -80 -80z m200 0 l-80 -80 -75 0 -75 0 80 80 80
80 75 0 75 0 -80 -80z m200 0 l-80 -80 -75 0 -75 0 80 80 80 80 75 0 75 0 -80
-80z m148 19 c19 -51 19 -51 -4 -75 -20 -21 -31 -24 -98 -24 l-75 0 74 75 c41
41 77 75 80 75 3 0 13 -23 23 -51z m-1868 -339 l-80 -80 -67 0 c-38 0 -68 3
-68 7 0 4 33 40 72 80 l72 73 76 0 75 0 -80 -80z m200 0 l-80 -80 -75 0 -75 0
80 80 80 80 75 0 75 0 -80 -80z m200 0 l-80 -80 -75 0 -75 0 80 80 80 80 75 0
75 0 -80 -80z m200 0 l-80 -80 -75 0 -75 0 80 80 80 80 75 0 75 0 -80 -80z
m200 0 l-80 -80 -75 0 -75 0 80 80 80 80 75 0 75 0 -80 -80z m200 0 l-80 -80
-75 0 -75 0 80 80 80 80 75 0 75 0 -80 -80z m200 0 l-80 -80 -75 0 -75 0 80
80 80 80 75 0 75 0 -80 -80z m200 0 l-80 -80 -75 0 -75 0 80 80 80 80 75 0 75
0 -80 -80z m200 0 l-80 -80 -75 0 -75 0 80 80 80 80 75 0 75 0 -80 -80z m200
0 l-80 -80 -75 0 -75 0 80 80 80 80 75 0 75 0 -80 -80z m200 0 l-80 -80 -75 0
-75 0 80 80 80 80 75 0 75 0 -80 -80z m200 0 l-80 -80 -75 0 -75 0 80 80 80
80 75 0 75 0 -80 -80z m252 67 c4 -4 -24 -39 -62 -77 l-69 -70 -75 0 -76 0 80
81 80 81 57 -4 c32 -2 61 -7 65 -11z m-1817 -432 l-125 -125 -3 71 -3 72 53
54 52 53 76 0 75 0 -125 -125z m-10 -210 c-232 -232 -341 -335 -356 -335 -12
0 -41 -9 -65 -20 -24 -11 -57 -20 -74 -20 -28 0 -23 7 85 116 63 63 131 122
150 130 45 19 105 78 121 118 6 17 82 102 168 189 l156 157 75 0 75 0 -335
-335z m365 165 c-120 -120 -174 -168 -185 -163 -8 3 -34 8 -57 11 -32 3 -46
-1 -62 -17 -23 -23 -28 -79 -10 -113 10 -19 -5 -36 -147 -179 l-159 -159 -10
39 c-5 22 -16 46 -23 53 -10 10 54 79 330 355 l343 343 75 0 75 0 -170 -170z
m50 -150 l-320 -320 -47 0 c-65 0 -88 -23 -88 -88 0 -46 -2 -50 -84 -131 l-84
-83 -20 53 -21 54 177 178 c144 144 182 177 204 177 36 0 68 32 68 67 0 23 36
64 192 220 l193 193 75 0 75 0 -320 -320z m200 0 l-320 -320 -75 0 -75 0 320
320 320 320 75 0 75 0 -320 -320z m385 252 l0 -67 -95 -95 c-93 -93 -95 -94
-139 -91 -35 2 -49 -2 -66 -19 -17 -17 -21 -31 -19 -66 3 -44 2 -46 -91 -139
l-95 -95 -75 0 -75 0 320 320 c176 176 323 320 327 320 5 0 8 -30 8 -68z m672
5 l-63 -64 -54 21 -54 21 42 43 41 42 75 0 75 0 -62 -63z m-2000 -200 c-43
-42 -52 -48 -70 -38 -11 6 -25 25 -31 43 -11 32 -10 33 66 110 l78 79 3 -73 3
-72 -49 -49z m1600 0 c-43 -42 -52 -48 -70 -38 -11 6 -25 25 -31 43 -11 32
-10 33 66 110 l78 79 3 -73 3 -72 -49 -49z m-421 -219 l-156 -158 -75 0 -75 0
83 83 c81 81 82 82 126 79 61 -5 89 22 85 84 -3 43 -1 46 76 125 l80 80 6 -68
6 -68 -156 -157z m706 170 l33 -32 -162 -163 c-150 -150 -166 -163 -199 -163
-45 0 -75 -30 -84 -85 -6 -36 -36 -69 -278 -312 -296 -298 -262 -272 -396
-287 l-44 -5 89 90 c58 58 108 98 144 116 71 34 179 142 213 213 21 43 74 102
234 262 115 113 219 209 232 213 35 10 107 80 122 118 14 37 38 67 53 67 5 0
25 -14 43 -32z m-2157 -223 c-52 -52 -98 -91 -103 -88 -5 3 -17 24 -28 47
l-18 41 85 86 86 87 36 -40 35 -39 -93 -94z m1592 -8 l-102 -102 -71 3 -72 4
138 138 137 138 36 -40 35 -39 -101 -102z m637 98 l9 -50 -106 -107 c-97 -99
-109 -108 -143 -108 -21 0 -50 5 -65 10 l-28 11 154 154 c85 85 158 151 162
147 4 -4 12 -30 17 -57z m-2026 -33 l49 -5 -113 -113 -112 -113 -35 15 c-71
29 -72 29 35 136 67 67 103 96 113 92 8 -4 37 -9 63 -12z m1601 0 l48 -5 -163
-164 -164 -163 -5 67 -5 68 105 108 c72 74 110 105 120 101 8 -4 37 -9 64 -12z
m-776 -429 l-106 -106 -47 28 -47 27 78 79 79 79 75 0 75 0 -107 -107z m192
-8 l-115 -115 -75 0 -75 0 115 115 115 115 75 0 75 0 -115 -115z m-683 -82
c-34 -35 -65 -63 -69 -63 -4 0 -18 19 -32 43 l-26 42 77 77 77 77 18 -57 17
-57 -62 -62z m1132 25 c-60 -115 -181 -237 -296 -296 -44 -23 -85 -42 -89 -42
-5 0 88 97 206 215 118 118 216 213 218 210 2 -2 -16 -41 -39 -87z m381 89 c0
-1 -79 -81 -176 -177 -98 -97 -158 -151 -135 -122 49 65 102 159 127 227 26
74 28 75 110 75 41 0 74 -1 74 -3z m-1397 -129 l29 -41 -58 -58 -58 -59 -38
37 -38 37 62 63 c34 35 65 63 68 63 3 -1 18 -19 33 -42z m95 -95 c20 -15 39
-29 41 -30 7 -5 -101 -113 -112 -113 -5 0 -26 12 -47 28 l-39 27 57 58 c31 31
58 57 60 57 2 0 20 -12 40 -27z m150 -76 l42 -11 -61 -62 -62 -63 -41 16 c-23
9 -45 20 -51 25 -14 12 96 120 115 112 8 -3 34 -10 58 -17z m162 -92 c-80 -80
-91 -84 -164 -64 l-39 11 64 64 63 64 75 0 75 0 -74 -75z m-549 -72 c21 -16
39 -30 39 -33 0 -3 -93 -98 -207 -212 l-208 -207 -99 -25 -100 -25 265 265
c145 145 265 264 267 264 2 0 21 -12 43 -27z m-29 -306 c-78 -78 -78 -78 -173
-102 -52 -14 -96 -25 -99 -25 -3 0 74 79 170 175 l175 175 3 -72 3 -72 -79
-79z m878 130 l0 -52 -195 -195 -195 -195 -37 38 -38 37 200 201 c244 245 265
258 265 166z m-353 -1 c1 -1 -51 -56 -117 -121 l-119 -119 -26 24 c-42 40 -34
66 52 152 l76 77 66 -6 c36 -3 67 -7 68 -7z m41 -163 l-178 -178 -37 38 -38
37 135 135 134 134 55 4 c31 2 67 4 81 5 20 2 -11 -34 -152 -175z m153 -187
l-161 -161 -22 23 -23 22 180 180 180 180 3 -42 3 -42 -160 -160z m-570 -2
c11 -13 -4 -32 -109 -137 l-122 -122 0 75 0 76 53 51 c66 66 149 92 178 57z
m454 -374 l-390 -390 -75 0 -75 0 210 210 c149 149 214 208 225 203 8 -3 35
-8 58 -11 l44 -4 191 191 c106 105 194 191 197 191 3 0 -171 -175 -385 -390z
m493 369 c26 -7 49 -14 52 -16 2 -2 -162 -170 -365 -373 l-370 -370 -75 0 -75
0 385 385 c212 212 389 385 393 385 4 0 29 -5 55 -11z m-190 -466 l-293 -293
-75 0 -75 0 365 365 365 365 3 -72 3 -72 -293 -293z m-678 392 l34 -36 -172
-172 -172 -172 0 75 0 75 132 132 c73 73 135 133 138 133 4 0 21 -16 40 -35z
m-550 -219 l-80 -81 0 75 0 75 78 78 77 78 3 -73 3 -72 -81 -80z m1760 -40
l-80 -81 0 75 0 75 78 78 77 78 3 -73 3 -72 -81 -80z m-1110 159 l34 -36 -222
-222 -222 -222 0 75 0 75 182 182 c101 101 185 183 188 183 4 0 21 -16 40 -35z
m-1086 -354 l-196 -196 6 45 c17 119 27 134 210 318 l171 172 3 -72 3 -72
-197 -195z m1764 -38 l-193 -193 -75 0 -75 0 265 265 265 265 3 -72 3 -72
-193 -193z m862 268 c0 -3 -43 -49 -95 -101 l-95 -95 0 75 0 74 57 58 56 57
39 -30 c21 -17 38 -34 38 -38z m-1440 24 l34 -35 -224 -225 -225 -225 -47 0
c-46 0 -48 1 -48 27 0 23 42 70 232 260 128 128 235 233 238 233 4 0 21 -16
40 -35z m-750 -219 l-80 -81 0 75 0 75 78 78 77 78 3 -73 3 -72 -81 -80z
m1760 -40 l-80 -81 0 75 0 75 78 78 77 78 3 -73 3 -72 -81 -80z m487 174 c13
-15 25 -34 28 -42 3 -8 -51 -69 -135 -153 l-140 -140 0 75 0 75 107 107 c59
60 110 108 113 107 3 0 15 -13 27 -29z m-2687 -374 l-200 -201 0 75 0 75 198
198 197 197 3 -72 3 -72 -201 -200z m1868 67 l-93 -93 -75 0 -75 0 165 165
165 165 3 -72 3 -72 -93 -93z m901 170 l22 -46 -175 -176 -176 -176 0 75 0 75
147 147 c81 82 150 148 153 148 3 0 16 -21 29 -47z m-2321 -190 c-40 -40 -76
-73 -80 -73 -5 0 -8 30 -8 67 l0 68 78 78 77 78 3 -72 3 -73 -73 -73z m1780
-20 c-38 -39 -60 -53 -80 -53 -27 0 -28 2 -28 47 0 46 3 50 78 126 l77 78 3
-72 3 -72 -53 -54z m-2228 -227 l-200 -201 0 75 0 75 198 198 197 197 3 -72 3
-72 -201 -200z m2820 288 l12 -57 -196 -196 -196 -196 0 75 0 75 177 177 c98
98 181 178 185 178 3 0 12 -25 18 -56z m20 -194 l0 -55 -200 -200 -200 -200 0
75 0 75 192 192 c129 129 195 188 200 180 4 -7 8 -37 8 -67z m-2840 -294
l-200 -201 0 75 0 75 198 198 197 197 3 -72 3 -72 -201 -200z m490 89 l-125
-125 -3 71 -3 72 53 54 52 53 76 0 75 0 -125 -125z m100 -100 l-225 -225 -3
72 -3 72 153 153 153 153 75 0 75 0 -225 -225z m185 -15 l-240 -240 -75 0 -75
0 240 240 240 240 75 0 75 0 -240 -240z m200 0 l-240 -240 -75 0 -75 0 240
240 240 240 75 0 75 0 -240 -240z m200 0 l-240 -240 -75 0 -75 0 240 240 240
240 75 0 75 0 -240 -240z m200 0 l-240 -240 -75 0 -75 0 240 240 240 240 75 0
75 0 -240 -240z m200 0 l-240 -240 -75 0 -75 0 240 240 240 240 75 0 75 0
-240 -240z m200 0 l-240 -240 -75 0 -75 0 240 240 240 240 75 0 75 0 -240
-240z m200 0 l-240 -240 -75 0 -75 0 240 240 240 240 75 0 75 0 -240 -240z
m305 173 l0 -68 -172 -172 -173 -173 -75 0 -75 0 240 240 c132 132 243 240
247 240 5 0 8 -30 8 -67z m408 -260 l-153 -153 -47 0 c-46 0 -48 1 -48 27 0
23 37 65 198 226 l197 197 3 -72 3 -72 -153 -153z m-2620 -20 l-133 -133 -67
0 c-38 0 -68 3 -68 7 0 4 89 97 198 206 l197 197 3 -72 3 -72 -133 -133z
m2140 -60 l-72 -73 -76 0 -75 0 145 145 145 145 3 -72 3 -72 -73 -73z m580
-20 l-52 -53 -76 0 -75 0 125 125 125 125 3 -71 3 -72 -53 -54z m-2619 -20
c-32 -32 -36 -33 -108 -33 l-76 0 105 105 105 105 3 -71 c3 -69 2 -73 -29
-106z"/>
<path d="M4585 530 c-431 -431 -525 -530 -505 -530 37 0 1043 1007 1038 1039
-2 17 -103 -78 -533 -509z"/>
<path d="M4685 430 c-351 -351 -425 -430 -405 -430 37 0 843 807 838 839 -2
17 -83 -59 -433 -409z"/>
<path d="M4785 330 c-271 -271 -325 -330 -305 -330 37 0 643 607 638 639 -2
17 -63 -39 -333 -309z"/>
<path d="M4885 230 c-191 -191 -226 -230 -205 -230 37 0 443 407 438 439 -2
18 -44 -19 -233 -209z"/>
</g>
</svg>
