<?xml version="1.0" standalone="no"?>
<!DOCTYPE svg PUBLIC "-//W3C//DTD SVG 20010904//EN"
 "http://www.w3.org/TR/2001/REC-SVG-20010904/DTD/svg10.dtd">
<svg version="1.0" xmlns="http://www.w3.org/2000/svg"
 width="256.000000pt" height="256.000000pt" viewBox="0 0 256.000000 256.000000"
 preserveAspectRatio="xMidYMid meet">

<g transform="translate(0.000000,256.000000) scale(0.100000,-0.100000)"
fill="#000000" stroke="none">
<path d="M1092 2545 c-63 -19 -107 -58 -137 -120 -25 -50 -27 -63 -23 -148 3
-77 9 -103 35 -157 17 -36 46 -83 66 -105 l35 -40 27 27 c15 15 36 30 47 34
17 5 16 8 -13 22 -57 29 -45 37 57 38 l97 0 -27 -23 c-15 -13 -34 -23 -42 -23
-8 0 -14 -4 -14 -10 0 -5 6 -10 14 -10 8 0 26 -14 41 -31 l26 -32 40 39 c67
65 119 195 119 299 0 177 -171 296 -348 240z m23 -239 c24 -10 35 -22 35 -35
0 -25 2 -25 -43 -6 -20 8 -48 15 -62 15 -29 0 -33 14 -7 29 23 14 37 13 77 -3z
m206 4 c26 -14 24 -30 -3 -30 -13 -1 -41 -7 -63 -15 -21 -8 -41 -12 -44 -9 -9
8 15 38 40 51 29 16 45 16 70 3z"/>
<path d="M1134 2008 c-26 -12 -31 -21 -87 -169 -53 -135 -118 -269 -124 -252
-3 7 12 47 32 90 21 43 54 123 75 177 l38 100 -23 18 c-19 15 -42 18 -133 18
-172 0 -182 -16 -164 -259 20 -255 67 -351 172 -351 71 0 130 60 203 205 52
106 137 325 137 355 0 29 -53 80 -82 79 -13 0 -33 -5 -44 -11z"/>
<path d="M1308 1967 c-16 -12 -28 -30 -28 -39 0 -27 -79 -229 -135 -343 -78
-161 -142 -225 -224 -225 l-31 0 0 -620 c0 -503 3 -627 14 -653 46 -108 186
-116 236 -13 19 41 20 59 20 529 l0 487 25 0 25 0 0 -504 c0 -495 0 -504 21
-530 44 -56 118 -72 176 -36 59 36 63 54 63 310 l0 230 -22 0 c-74 0 -145 50
-179 125 -43 93 -16 276 55 381 30 45 114 114 138 114 4 0 8 123 8 273 1 178
4 266 10 256 5 -9 19 -54 31 -100 18 -71 22 -123 26 -338 5 -250 6 -255 29
-278 14 -14 35 -23 53 -23 84 0 91 22 91 272 0 352 -49 557 -160 668 -52 52
-92 71 -159 76 -48 4 -60 1 -83 -19z"/>
<path d="M1442 1144 c-59 -29 -101 -78 -139 -160 -21 -46 -27 -78 -31 -153 -4
-91 -2 -99 25 -150 56 -107 162 -128 299 -61 171 84 263 269 196 395 -25 46
-46 75 -56 75 -3 0 -6 -14 -6 -31 0 -65 -43 -108 -108 -109 -35 0 -49 6 -73
29 -27 28 -29 34 -29 110 0 93 -1 94 -78 55z m27 -165 c30 -11 59 -45 47 -56
-3 -3 -23 2 -46 11 -22 9 -49 16 -60 16 -23 0 -26 10 -8 28 15 15 26 15 67 1z
m177 -111 c7 -5 17 -22 24 -39 10 -24 10 -33 0 -42 -9 -9 -15 -8 -24 8 -6 11
-24 32 -39 47 -16 15 -26 32 -22 38 7 11 41 5 61 -12z m-196 -103 c28 -14 60
-60 60 -85 0 -17 -24 -11 -37 9 -7 10 -37 31 -67 46 -31 15 -56 31 -56 36 0
15 69 10 100 -6z"/>
</g>
</svg>
