<?xml version="1.0" standalone="no"?>
<!DOCTYPE svg PUBLIC "-//W3C//DTD SVG 20010904//EN"
 "http://www.w3.org/TR/2001/REC-SVG-20010904/DTD/svg10.dtd">
<svg version="1.0" xmlns="http://www.w3.org/2000/svg"
 width="200.000000pt" height="200.000000pt" viewBox="0 0 200.000000 200.000000"
 preserveAspectRatio="xMidYMid meet">

<g transform="translate(0.000000,200.000000) scale(0.100000,-0.100000)"
fill="#000000" stroke="none">
<path d="M451 1360 c-45 -33 -112 -129 -132 -187 -6 -19 -9 -58 -6 -86 3 -40
11 -56 33 -75 76 -66 212 32 189 137 -8 39 -33 59 -78 63 l-38 3 47 75 c25 41
48 81 51 88 9 21 -23 13 -66 -18z"/>
<path d="M855 1381 c-32 -13 -111 -104 -139 -160 -36 -69 -43 -128 -22 -173
54 -113 216 -49 216 85 0 45 -31 77 -75 77 -19 0 -35 4 -35 8 0 4 20 41 45 81
56 91 58 101 10 82z"/>
<path d="M1174 971 c-90 -55 -82 -201 11 -201 19 0 35 -3 35 -8 0 -4 -20 -40
-45 -80 -58 -93 -59 -105 -6 -78 67 35 151 158 166 243 18 111 -71 179 -161
124z"/>
<path d="M1570 983 c-28 -10 -70 -56 -81 -90 -22 -68 8 -119 74 -125 l38 -3
-52 -83 c-28 -46 -48 -86 -45 -90 13 -13 80 34 118 82 65 83 82 123 83 199 0
63 -2 71 -28 93 -27 23 -71 30 -107 17z"/>
</g>
</svg>
