<?xml version="1.0" standalone="no"?>
<!DOCTYPE svg PUBLIC "-//W3C//DTD SVG 20010904//EN"
 "http://www.w3.org/TR/2001/REC-SVG-20010904/DTD/svg10.dtd">
<svg version="1.0" xmlns="http://www.w3.org/2000/svg"
 width="260.000000pt" height="280.000000pt" viewBox="0 0 260.000000 280.000000"
 preserveAspectRatio="xMidYMid meet">

<g transform="translate(0.000000,280.000000) scale(0.100000,-0.100000)"
fill="#000000" stroke="none">
<path d="M1931 2373 c-59 -73 -77 -101 -69 -110 14 -17 16 -16 103 92 68 84
83 115 55 115 -5 0 -45 -44 -89 -97z"/>
<path d="M1310 2243 c-107 -64 -321 -190 -475 -281 -395 -233 -418 -247 -438
-274 -30 -40 -32 -90 -6 -142 44 -90 32 -92 255 40 827 487 1031 609 1047 623
17 17 17 19 -9 65 -33 60 -75 86 -134 85 -39 0 -71 -15 -240 -116z m170 -35
c-28 -81 -30 -84 -87 -119 -32 -20 -59 -33 -61 -30 -1 4 10 43 25 87 27 75 30
80 83 111 30 18 57 33 61 33 4 0 -5 -37 -21 -82z m160 30 c0 -7 -33 -28 -43
-28 -3 0 0 16 6 36 10 33 12 34 24 18 7 -10 13 -21 13 -26z m-427 -193 c-27
-75 -31 -80 -83 -112 -30 -18 -58 -33 -62 -33 -3 0 6 37 20 82 26 80 28 82 87
120 33 20 61 34 63 30 1 -5 -10 -44 -25 -87z m-260 -142 c-28 -87 -37 -99
-107 -138 -55 -32 -54 -42 -12 82 20 59 26 67 76 99 30 18 58 34 62 34 4 0 -5
-35 -19 -77z m-246 -95 c-2 -7 -15 -45 -27 -84 -13 -39 -30 -75 -39 -81 -9 -5
-37 -22 -63 -37 l-47 -27 30 88 c28 85 31 89 82 120 57 35 72 40 64 21z"/>
<path d="M2053 2187 c-79 -29 -143 -54 -143 -57 1 -30 23 -28 155 21 77 28
143 52 147 55 8 5 -1 34 -11 33 -3 0 -70 -23 -148 -52z"/>
<path d="M1970 1973 c0 -16 17 -22 121 -42 89 -18 123 -21 132 -12 18 18 -2
26 -108 45 -55 10 -110 20 -122 23 -18 4 -23 1 -23 -14z"/>
<path d="M1160 1675 c-366 -133 -673 -249 -683 -256 -17 -13 -16 -19 17 -108
19 -51 37 -96 40 -99 5 -5 1349 478 1382 497 20 11 -63 213 -86 210 -3 0 -304
-110 -670 -244z m667 139 c-3 -3 -18 1 -34 9 l-28 16 25 9 c20 8 27 6 34 -9 5
-11 7 -22 3 -25z m-137 -65 c45 -17 78 -35 73 -39 -11 -10 -102 -40 -121 -40
-19 0 -162 53 -162 61 0 5 105 47 122 48 3 1 43 -13 88 -30z m-287 -106 c42
-15 77 -30 77 -33 0 -4 -28 -16 -63 -29 l-63 -22 -83 32 c-45 17 -80 33 -78
36 8 8 102 42 117 43 8 0 50 -12 93 -27z m-284 -107 l83 -32 -68 -25 -69 -26
-60 24 c-122 48 -118 42 -50 68 33 12 65 23 70 23 6 0 48 -14 94 -32z m-292
-103 c40 -15 73 -31 73 -34 0 -4 -28 -17 -62 -28 l-63 -21 -79 29 c-43 17 -80
32 -82 34 -6 6 97 46 120 46 11 1 52 -11 93 -26z"/>
<path d="M1240 1433 c-371 -135 -676 -247 -678 -248 -8 -7 229 -631 244 -642
10 -7 32 -13 49 -13 25 0 1006 349 1213 432 57 22 72 40 72 85 0 25 -204 608
-219 625 -3 3 -310 -104 -681 -239z m90 -253 c171 -24 172 -24 168 -49 -4 -27
-209 -251 -229 -251 -17 0 -39 48 -99 221 -23 67 -22 99 2 99 8 0 79 -9 158
-20z"/>
<path d="M603 95 c0 -27 2 -38 4 -22 2 15 8 27 13 27 5 0 11 -12 13 -27 4 -26
4 -26 6 5 1 22 -4 32 -13 32 -8 0 -17 8 -19 18 -3 9 -5 -5 -4 -33z"/>
<path d="M1102 95 c0 -27 2 -43 5 -35 3 8 13 24 22 35 15 18 15 19 -1 7 -14
-12 -17 -10 -21 15 -2 16 -4 6 -5 -22z"/>
<path d="M720 120 c-4 -25 1 -54 10 -63 4 -5 5 3 3 17 -4 19 -1 26 11 26 9 0
16 -8 16 -19 0 -11 4 -22 9 -25 5 -4 7 3 4 15 -3 12 -1 24 4 28 7 4 6 11 -3
19 -8 7 -14 8 -14 2 0 -14 -27 -13 -33 3 -4 8 -6 8 -7 -3z"/>
<path d="M949 118 c-2 -25 3 -53 11 -62 5 -5 6 1 3 14 -3 12 -1 25 4 29 7 4 6
11 -3 19 -11 10 -14 10 -15 0z"/>
<path d="M1500 125 c-1 -5 -1 -21 0 -34 1 -13 -4 -28 -12 -32 -9 -6 -3 -9 17
-9 17 0 25 4 18 8 -6 4 -13 23 -16 42 -2 19 -5 31 -7 25z"/>
<path d="M1547 123 c-3 -5 -4 -21 -3 -38 1 -23 6 -30 21 -30 11 0 20 6 19 13
-1 6 -2 23 -2 37 -2 23 -25 35 -35 18z m23 -13 c0 -5 -4 -10 -10 -10 -5 0 -10
5 -10 10 0 6 5 10 10 10 6 0 10 -4 10 -10z m2 -35 c0 -5 -5 -11 -11 -13 -6 -2
-11 4 -11 13 0 9 5 15 11 13 6 -2 11 -8 11 -13z"/>
<path d="M1600 110 c-11 -21 1 -60 19 -60 18 0 33 31 27 55 -8 30 -31 33 -46
5z m35 -20 c0 -27 -20 -38 -28 -15 -8 20 3 47 17 42 6 -2 11 -14 11 -27z"/>
<path d="M1670 106 c-15 -29 -8 -56 15 -56 23 0 31 31 12 45 -12 9 -14 14 -5
23 7 7 8 12 2 12 -6 0 -16 -11 -24 -24z m22 -31 c0 -5 -5 -11 -11 -13 -6 -2
-11 4 -11 13 0 9 5 15 11 13 6 -2 11 -8 11 -13z"/>
<path d="M1738 123 c7 -3 16 -2 19 1 4 3 -2 6 -13 5 -11 0 -14 -3 -6 -6z"/>
<path d="M1785 120 c-4 -6 1 -7 11 -3 13 5 16 3 11 -10 -3 -9 -2 -19 4 -22 14
-9 -1 -27 -18 -21 -8 3 -11 1 -8 -4 8 -13 35 -13 35 0 0 6 11 10 25 10 14 0
25 -6 25 -12 0 -10 2 -10 8 0 5 7 6 27 4 44 l-5 32 -22 -26 c-24 -28 -35 -27
-35 4 0 19 -25 25 -35 8z m81 -37 c-10 -10 -19 5 -10 18 6 11 8 11 12 0 2 -7
1 -15 -2 -18z"/>
<path d="M1920 125 c-1 -5 -1 -21 0 -34 1 -13 -4 -28 -12 -32 -9 -6 -3 -9 17
-9 17 0 25 4 18 8 -6 4 -13 23 -16 42 -2 19 -5 31 -7 25z"/>
<path d="M1980 125 c-1 -5 -1 -21 0 -34 1 -13 -4 -28 -12 -32 -9 -6 -3 -9 17
-9 17 0 25 4 18 8 -6 4 -13 23 -16 42 -2 19 -5 31 -7 25z"/>
<path d="M2027 123 c-3 -5 -4 -21 -3 -38 1 -23 6 -30 21 -30 11 0 20 6 19 13
-1 6 -2 23 -2 37 -2 23 -25 35 -35 18z m23 -13 c0 -5 -4 -10 -10 -10 -5 0 -10
5 -10 10 0 6 5 10 10 10 6 0 10 -4 10 -10z m2 -35 c0 -5 -5 -11 -11 -13 -6 -2
-11 4 -11 13 0 9 5 15 11 13 6 -2 11 -8 11 -13z"/>
<path d="M550 93 c0 -10 4 -14 8 -8 4 6 11 13 16 18 5 4 2 7 -7 7 -10 0 -17
-8 -17 -17z"/>
<path d="M661 83 c-1 -27 3 -33 19 -33 16 0 20 6 19 33 -2 30 -2 30 -6 5 -6
-36 -20 -36 -26 0 -4 25 -4 25 -6 -5z"/>
<path d="M807 104 c-13 -13 -7 -24 14 -24 11 0 19 5 17 12 -5 14 -22 21 -31
12z"/>
<path d="M861 78 c2 -28 2 -29 6 -8 3 14 10 28 17 32 7 5 5 8 -6 8 -14 0 -18
-8 -17 -32z"/>
<path d="M900 93 c0 -10 4 -14 8 -8 4 6 11 13 16 18 5 4 2 7 -7 7 -10 0 -17
-8 -17 -17z"/>
<path d="M994 95 c-8 -21 2 -45 20 -45 19 0 29 29 15 46 -15 18 -28 18 -35 -1z
m31 -15 c0 -7 -6 -15 -12 -17 -8 -3 -13 4 -13 17 0 13 5 20 13 18 6 -3 12 -11
12 -18z"/>
<path d="M1054 95 c-8 -20 2 -45 18 -44 10 0 10 2 1 6 -7 2 -13 13 -13 23 0
10 6 21 13 23 9 4 9 6 -1 6 -7 1 -15 -6 -18 -14z"/>
<path d="M1194 95 c-8 -20 2 -45 18 -44 10 0 10 2 1 6 -7 2 -13 13 -13 23 0
10 6 21 13 23 9 4 9 6 -1 6 -7 1 -15 -6 -18 -14z"/>
<path d="M1244 95 c-8 -21 2 -45 20 -45 7 0 16 7 20 15 8 21 -3 45 -20 45 -8
0 -17 -7 -20 -15z m31 -15 c0 -7 -6 -15 -12 -17 -8 -3 -13 4 -13 17 0 13 5 20
13 18 6 -3 12 -11 12 -18z"/>
<path d="M1301 77 c2 -31 2 -31 6 -4 2 15 8 27 13 27 5 0 11 -12 13 -27 l4
-28 2 28 c0 15 5 27 10 27 5 0 12 -12 14 -27 4 -27 4 -27 6 4 1 29 -1 31 -34
31 -33 0 -35 -2 -34 -31z"/>
<path d="M1720 100 c0 -6 6 -10 14 -10 26 0 28 -20 4 -29 -15 -7 -17 -10 -7
-10 21 -1 40 21 31 35 -10 15 -42 25 -42 14z"/>
<path d="M562 65 c-11 -12 -10 -15 3 -15 8 0 15 7 15 15 0 18 -2 18 -18 0z"/>
<path d="M912 65 c-11 -12 -10 -15 3 -15 8 0 15 7 15 15 0 18 -2 18 -18 0z"/>
<path d="M1120 71 c0 -5 5 -13 10 -16 6 -3 10 -2 10 4 0 5 -4 13 -10 16 -5 3
-10 2 -10 -4z"/>
<path d="M808 58 c5 -5 16 -8 23 -6 8 3 3 7 -10 11 -17 4 -21 3 -13 -5z"/>
</g>
</svg>
