<?xml version="1.0" standalone="no"?>
<!DOCTYPE svg PUBLIC "-//W3C//DTD SVG 20010904//EN"
 "http://www.w3.org/TR/2001/REC-SVG-20010904/DTD/svg10.dtd">
<svg version="1.0" xmlns="http://www.w3.org/2000/svg"
 width="225.000000pt" height="225.000000pt" viewBox="0 0 225.000000 225.000000"
 preserveAspectRatio="xMidYMid meet">

<g transform="translate(0.000000,225.000000) scale(0.100000,-0.100000)"
fill="#000000" stroke="none">
<path d="M945 2235 c-105 -20 -175 -40 -260 -76 -63 -27 -205 -106 -205 -115
0 -11 25 -54 31 -54 5 0 41 20 81 44 215 130 509 176 763 121 87 -18 230 -77
313 -127 34 -21 66 -38 71 -38 12 0 33 52 24 60 -27 25 -159 95 -227 121 -179
69 -422 95 -591 64z"/>
<path d="M255 2050 c-47 -10 -82 -38 -103 -81 -13 -26 -34 -47 -63 -62 -49
-26 -89 -90 -89 -141 0 -51 40 -118 85 -143 37 -21 53 -23 197 -23 145 0 158
1 168 19 15 29 12 278 -4 324 -30 82 -108 126 -191 107z m105 -96 c24 -23 25
-31 28 -154 l4 -130 -130 0 c-114 0 -132 2 -155 20 -68 54 -25 170 62 170 14
0 22 8 27 28 10 48 28 75 59 88 38 17 73 10 105 -22z"/>
<path d="M1905 2045 c-49 -17 -90 -62 -104 -112 -14 -49 -14 -288 -1 -314 10
-18 23 -19 168 -19 144 0 160 2 197 23 45 25 85 92 85 143 0 51 -40 115 -90
141 -25 13 -49 35 -56 51 -17 40 -62 80 -103 92 -45 12 -47 12 -96 -5z m102
-75 c20 -12 35 -30 38 -47 10 -45 19 -56 60 -67 72 -21 97 -114 44 -162 -18
-16 -41 -19 -156 -22 l-135 -4 4 130 c3 113 6 133 23 152 38 43 75 49 122 20z"/>
<path d="M723 1585 c-29 -8 -72 -24 -95 -36 -54 -28 -143 -112 -175 -167 -70
-120 -82 -273 -31 -404 l10 -28 187 0 186 0 40 78 c53 103 67 103 120 0 22
-43 44 -77 49 -75 5 2 24 70 42 152 39 175 47 195 74 195 29 0 36 -22 100
-325 29 -135 30 -137 46 -91 19 53 32 66 65 66 27 0 30 5 57 91 46 143 76 143
119 -2 l27 -89 137 0 137 0 17 43 c26 64 31 200 10 272 -25 87 -51 132 -113
197 -149 157 -388 181 -566 59 -38 -26 -43 -28 -61 -14 -108 80 -259 111 -382
78z m96 -209 c18 -22 2 -45 -38 -56 -41 -11 -71 -38 -92 -85 -17 -35 -47 -44
-65 -20 -26 35 26 119 96 156 42 22 83 24 99 5z"/>
<path d="M69 1513 c-31 -78 -60 -227 -66 -334 -7 -128 12 -269 51 -394 22 -68
23 -70 55 -68 18 0 34 3 36 5 2 2 -7 33 -19 69 -72 198 -71 485 3 680 11 29
20 54 18 55 -1 1 -17 5 -34 9 -30 6 -34 4 -44 -22z"/>
<path d="M2122 1533 c-17 -3 -22 -9 -17 -21 46 -112 75 -264 75 -387 0 -100
-24 -247 -55 -336 l-23 -67 31 -6 c17 -3 34 -3 38 1 15 16 51 151 64 243 26
170 14 329 -39 502 -22 74 -28 80 -74 71z"/>
<path d="M1106 998 c-26 -119 -26 -120 -93 -116 -37 2 -59 8 -64 18 -5 8 -17
30 -28 49 l-19 34 -26 -52 -26 -51 -186 0 c-160 0 -184 -2 -177 -15 16 -27
626 -635 638 -635 12 0 622 608 638 635 7 13 -10 15 -126 15 -96 0 -138 4
-145 13 -5 6 -15 32 -22 57 l-12 45 -15 -40 c-23 -64 -28 -70 -60 -73 -29 -3
-33 -8 -57 -80 -36 -105 -48 -126 -74 -130 -28 -4 -31 2 -76 218 -21 96 -41
178 -45 183 -4 4 -15 -30 -25 -75z"/>
<path d="M86 627 c-53 -30 -89 -97 -83 -154 6 -57 40 -108 86 -130 26 -12 46
-32 61 -61 30 -56 80 -86 140 -85 58 1 101 23 137 70 27 36 28 40 31 189 3
100 0 159 -7 173 -11 20 -19 21 -169 21 -144 0 -160 -2 -196 -23z m304 -171
c0 -118 -1 -126 -25 -154 -60 -71 -148 -40 -169 61 -5 19 -13 27 -27 27 -87 0
-130 116 -62 170 23 18 41 20 154 20 l129 0 0 -124z"/>
<path d="M1799 629 c-7 -14 -10 -73 -7 -173 3 -149 4 -153 31 -189 77 -102
219 -94 277 15 15 29 35 49 61 61 46 22 80 73 86 130 6 57 -30 124 -83 154
-36 21 -52 23 -196 23 -150 0 -158 -1 -169 -21z m357 -82 c27 -32 30 -66 9
-106 -13 -25 -30 -36 -88 -55 -18 -6 -21 -11 -31 -59 -9 -37 -61 -70 -101 -62
-16 3 -42 19 -57 35 -27 30 -28 33 -28 156 l0 126 136 -4 c135 -3 136 -3 160
-31z"/>
<path d="M491 234 c-6 -15 -10 -28 -9 -29 134 -97 282 -157 472 -190 250 -43
534 14 757 152 33 19 59 37 59 39 0 10 -24 54 -30 54 -4 0 -42 -20 -86 -45
-97 -56 -210 -100 -312 -123 -106 -23 -329 -23 -436 1 -99 22 -241 78 -323
128 -35 22 -67 39 -72 39 -4 0 -13 -12 -20 -26z"/>
</g>
</svg>
